<?xml version="1.0" encoding="utf-8"?>
<!-- Generator: Adobe Illustrator 27.0.0, SVG Export Plug-In . SVG Version: 6.00 Build 0)  -->
<svg version="1.1" id="Layer_1" xmlns="http://www.w3.org/2000/svg" xmlns:xlink="http://www.w3.org/1999/xlink" x="0px" y="0px"
	 width="300px" height="96px" viewBox="0 0 300 96" style="enable-background:new 0 0 300 96;" xml:space="preserve">
<style type="text/css">
	.st0{fill:#FFFFFF;}
</style>
<g>
	<g>
		<g>
			<path class="st0" d="M136.2134705,78.7376709c-0.4777985-0.7832108-0.2023315-1.424324,0.6206512-1.6539383l0.245163-0.0682068
				c0.6865845-0.1913452,1.1086884,0.0397873,1.5307922,0.4842453c0.5009155,0.5278244,1.1090698,0.8112488,1.8240662,0.8112488
				c0.8373871,0,1.357254-0.3679199,1.357254-0.9616776c0-1.7088776-5.6605225-0.7036285-5.6605225-4.8174438
				c0-2.0472488,1.7028198-3.3779755,4.1752014-3.3779755c1.8414917,0,3.3594055,0.5899582,4.0581055,1.7035751
				c0.561554,0.8945999,0.3194275,1.5448074-0.6047363,1.7365417l-0.2478027,0.0515289
				c-0.9556122,0.1981659-1.2716217-0.2345428-1.748291-0.6369476c-0.3948212-0.3330612-0.8138885-0.508873-1.3360291-0.508873
				c-0.7653961,0-1.2538147,0.3554153-1.2538147,0.9112778c0,1.9669113,5.743515,0.7032547,5.743515,4.7886505
				c0,2.1006699-1.8684082,3.4545135-4.4578705,3.4545135C138.6479645,80.6541901,136.9451447,79.9376755,136.2134705,78.7376709z"
				/>
			<path class="st0" d="M146.1363525,74.9144745c0-4.0217361,2.4935913-5.7457733,5.2808533-5.7457733
				c2.7417755,0,5.2554626,1.7240372,5.2554626,5.7457733c0,4.0998001-2.4985199,5.7446442-5.2857819,5.7446442
				C148.5992584,80.6591187,146.1363525,79.0142746,146.1363525,74.9144745z M153.5898743,74.9038696
				c0-1.9081879-0.9010468-2.9808807-2.193512-2.9808807c-1.3379211,0-2.2185059,1.0677643-2.2185059,2.9808807
				c0,1.9919205,0.8661804,3.0180054,2.2090302,3.0180054C152.6933746,77.921875,153.5898743,76.8957901,153.5898743,74.9038696z"/>
			<path class="st0" d="M158.4967346,79.2279739v-8.6580734c0-0.8517838,0.4516602-1.3140564,1.2837524-1.3140564h4.382843
				c0.8316956,0,1.2833557,0.4622726,1.2833557,1.3140564v0.1371689c0,0.8517838-0.4516602,1.3144379-1.2833557,1.3144379h-2.583786
				v2.0828629h2.2992249c0.832077,0,1.2837372,0.4516602,1.2837372,1.2507782v0.0155334
				c0,0.8146591-0.4516602,1.2666931-1.2837372,1.2666931h-2.2992249v2.5905991
				c0,0.8517914-0.4516602,1.3140564-1.2837372,1.3140564h-0.5153198
				C158.9483948,80.5420303,158.4967346,80.0797653,158.4967346,79.2279739z"/>
			<path class="st0" d="M168.5988312,79.2279739v-7.1803207h-1.0946655c-0.832077,0-1.2837372-0.4622726-1.2837372-1.314064
				v-0.1636887c0-0.8517838,0.4516602-1.3140564,1.2837372-1.3140564h5.2569885c0.832077,0,1.2837372,0.4622726,1.2837372,1.3140564
				v0.1636887c0,0.8517914-0.4516602,1.314064-1.2837372,1.314064h-1.079895v7.1803207
				c0,0.8517914-0.4516602,1.3140564-1.2833557,1.3140564h-0.5153198
				C169.0504913,80.5420303,168.5988312,80.0797653,168.5988312,79.2279739z"/>
			<path class="st0" d="M177.5422211,79.4583511l-2.7175293-8.7133942
				c-0.2811432-0.9002838,0.1470184-1.4838028,1.0715485-1.4838028h0.6585541c0.7657776,0,1.2291718,0.3762512,1.4262085,1.1283875
				l1.5050354,5.7355499l1.4440155-5.7302399c0.1909637-0.7578201,0.6600647-1.1336975,1.4254608-1.1336975h0.1625519
				c0.7653961,0,1.2352448,0.3910294,1.4246979,1.1443024l1.4390869,5.719635l1.5239716-5.734787
				c0.2004547-0.7540359,0.6570435-1.1291504,1.4224396-1.1291504h0.6691437c0.9245453,0,1.3610382,0.5721512,1.0738373,1.4872131
				l-2.7326965,8.7073364c-0.2303772,0.7324295-0.7131042,1.0863266-1.4580383,1.0863266h-0.6005707
				c-0.7657776,0-1.2337341-0.3807983-1.4258423-1.1443024l-1.4224243-5.6457443l-1.4171143,5.6457443
				c-0.1932526,0.7680511-0.6608276,1.1443024-1.4262238,1.1443024h-0.5907135
				C178.253067,80.5420303,177.7688141,80.1839676,177.5422211,79.4583511z"/>
			<path class="st0" d="M199.4007416,80.5420303h-0.5448761c-0.7502441,0-1.2117462-0.3538971-1.4421234-1.0980759
				l-0.1826324-0.5914764h-3.9262695l-0.1811066,0.5914764c-0.2269745,0.7437973-0.6926575,1.0980759-1.4428864,1.0980759h-0.545639
				c-0.9393158,0-1.3561096-0.611557-1.0264587-1.511467l3.1945801-8.7198334
				c0.262207-0.7157593,0.7343292-1.0548859,1.4739532-1.0548859h0.9677429c0.739624,0,1.2109833,0.3391266,1.4739532,1.0548859
				l3.2048187,8.7175598C200.755722,79.9312363,200.3355103,80.5420303,199.4007416,80.5420303z M195.2607727,72.6732254
				l-1.2568359,3.9702148h2.5227814L195.2607727,72.6732254z"/>
			<path class="st0" d="M209.5418549,80.5420303h-0.5755615c-0.7350769,0-1.1651459-0.3273773-1.477356-1.0169907
				l-1.1147614-2.4098587c-0.1231384,0.0049286-0.2493134,0.0072021-0.3789062,0.0072021h-0.9199829v2.1055908
				c0,0.8517914-0.4512939,1.3140564-1.283371,1.3140564h-0.5407104c-0.832077,0-1.2837372-0.462265-1.2837372-1.3140564v-8.6580734
				c0-0.8517838,0.4516602-1.3140564,1.2837372-1.3140564h2.8062134c3.7292175,0,4.7681885,1.4409943,4.7681885,3.8648758
				c0,1.3754425-0.5077362,2.5777206-1.7194977,3.2965088l1.3610535,2.5705185
				C210.9991455,79.9922333,210.7210236,80.5420303,209.5418549,80.5420303z M207.7174072,73.3802719
				c0-0.9631882-0.4550629-1.4959335-1.7372894-1.4959335h-0.9199982v3.0096741h0.9199982
				C207.2623444,74.8940125,207.7174072,74.3650589,207.7174072,73.3802719z"/>
			<path class="st0" d="M212.6868134,79.2279739v-8.6580734c0-0.8517838,0.4516602-1.3140564,1.2829742-1.3140564h4.8394318
				c0.8320923,0,1.2837372,0.4622726,1.2837372,1.3140564v0.1636887c0,0.8517914-0.4516449,1.314064-1.2837372,1.314064h-3.0403595
				v1.6732559h2.7667847c0.8320923,0,1.2837524,0.408844,1.2837524,1.1431732v0.0155334
				c0,0.7445602-0.4516602,1.1484756-1.2837524,1.1484756h-2.7667847v1.7331314h3.0403595
				c0.8320923,0,1.2837372,0.462265,1.2837372,1.3140564v0.1526947c0,0.8517914-0.4516449,1.3140564-1.2837372,1.3140564h-4.8394318
				C213.1384735,80.5420303,212.6868134,80.0797653,212.6868134,79.2279739z"/>
			<path class="st0" d="M225.7993317,74.8678665c0-3.4450378,2.1431122-5.7139435,5.2865448-5.7139435
				c1.948349,0,3.3806305,0.5153122,4.2180176,1.7782211c0.5206146,0.7847214,0.2326508,1.3060989-0.6820374,1.5444336
				l-0.4698486,0.1223831c-0.6949158,0.179985-1.1215668-0.0227356-1.5383759-0.3732224
				c-0.3440399-0.2887268-0.7896423-0.4975128-1.4140778-0.4975128c-1.3921204,0-2.2871094,1.2511597-2.2871094,3.1763992
				c0,1.9403915,0.8699799,3.1339569,2.2658844,3.1339569c1.0670013,0,1.7937622-0.6471786,1.9059143-1.8346786h-1.1132355
				c-0.7479706,0-1.1685638-0.4092178-1.1685638-1.1431656v-0.0155411c0-0.7187881,0.4562073-1.1227036,1.2837524-1.1227036
				h2.9100189c0.8108673,0,1.3041992,0.1977921,1.3041992,0.8752823v0.2398453c0,3.5196838-1.983963,5.60672-5.2607727,5.60672
				C227.8507538,80.6443405,225.7993317,78.3909683,225.7993317,74.8678665z"/>
			<path class="st0" d="M245.7034302,80.5420303h-0.5751801c-0.7350922,0-1.1655273-0.3273773-1.4777527-1.0169907
				l-1.1139832-2.4098587c-0.1235352,0.0049286-0.2500916,0.0072021-0.3796692,0.0072021h-0.9192352v2.1055908
				c0,0.8517914-0.4516602,1.3140564-1.2837524,1.3140564h-0.5410767c-0.832077,0-1.2837372-0.462265-1.2837372-1.3140564
				v-8.6580734c0-0.8517838,0.4516602-1.3140564,1.2837372-1.3140564h2.8061981
				c3.7292328,0,4.7682037,1.4409943,4.7682037,3.8648758c0,1.3754425-0.5077515,2.5777206-1.7194977,3.2965088l1.3610382,2.5705185
				C247.1607208,79.9922333,246.8825989,80.5420303,245.7034302,80.5420303z M243.879364,73.3802719
				c0-0.9631882-0.4554443-1.4959335-1.7376709-1.4959335h-0.9192352v3.0096741h0.9192352
				C243.4239197,74.8940125,243.879364,74.3650589,243.879364,73.3802719z"/>
			<path class="st0" d="M248.3186646,74.9144745c0-4.0217361,2.4932251-5.7457733,5.2804718-5.7457733
				c2.7425385,0,5.2554779,1.7240372,5.2554779,5.7457733c0,4.0998001-2.4977722,5.7446442-5.2857819,5.7446442
				C250.7815704,80.6591187,248.3186646,79.0142746,248.3186646,74.9144745z M255.7718048,74.9038696
				c0-1.9081879-0.9010468-2.9808807-2.1931305-2.9808807c-1.3375397,0-2.2181244,1.0677643-2.2181244,2.9808807
				c0,1.9919205,0.8654175,3.0180054,2.2082825,3.0180054C254.8760681,77.921875,255.7718048,76.8957901,255.7718048,74.9038696z"/>
			<path class="st0" d="M260.5422668,75.3373413v-4.7674408c0-0.8517838,0.4516602-1.3140564,1.2837524-1.3140564h0.525177
				c0.8320618,0,1.2837219,0.4622726,1.2837219,1.3140564v4.7518997c0,1.8092957,0.4759216,2.5580215,1.6679688,2.5580215
				c1.2026672,0,1.6785583-0.7487259,1.6785583-2.5424805v-4.7674408c0-0.8517838,0.4516602-1.3140564,1.2837524-1.3140564
				h0.5463867c0.8320923,0,1.2837524,0.4622726,1.2837524,1.3140564v4.7886581c0,3.609108-1.5845947,5.2956314-4.79245,5.2956314
				S260.5422668,78.9938126,260.5422668,75.3373413z"/>
			<path class="st0" d="M272.1899414,79.2279739v-8.6580734c0-0.8517838,0.4516602-1.3140564,1.2837524-1.3140564h2.1817322
				c4.099823,0,5.4275208,1.4409943,5.4275208,4.3817062c0,2.9403381-1.3276978,4.3063049-5.3918762,4.3063049h-0.4077148v1.2841187
				c0,0.8517914-0.4516602,1.3140564-1.2837524,1.3140564h-0.5259094
				C272.6416016,80.5420303,272.1899414,80.0797653,272.1899414,79.2279739z M277.9281311,73.5848846
				c0-1.0162354-0.4501343-1.6217346-1.7323608-1.6217346h-0.9124146v3.2806015h0.9124146
				C277.4779968,75.2437515,277.9281311,74.6166534,277.9281311,73.5848846z"/>
		</g>
	</g>
	<g>
		<g>
			<path class="st0" d="M135.3927612,44.8461418c0-9.1938515,6.1246796-15.7834587,14.6891632-15.7834587
				c6.2285156,0,10.4325104,2.3382492,12.7684784,6.8556023c0.8821106,1.7005463,0.1553497,2.9225273-1.4534912,3.2415695
				l-0.4152832,0.1060944c-1.4534912,0.3190422-2.4394226-0.2656174-3.3218994-1.5940704
				c-1.6607513-2.391674-4.100174-3.5606117-7.318634-3.5606117c-5.397934,0-9.1351166,4.3578339-9.1351166,10.7348747
				c0,6.323616,3.7371826,10.6814499,9.1351166,10.6814499c3.1146393,0,5.5540619-1.2223625,7.2148132-3.5075607
				c0.8824768-1.3284569,1.816864-1.8600655,3.269989-1.5940742l0.2076416,0.053051
				c1.816864,0.3720856,2.5951538,1.4879761,1.8683929,3.0289993c-2.2836761,4.5704002-6.6953125,7.1212158-12.8200073,7.1212158
				C141.673172,60.6292229,135.3927612,54.1991348,135.3927612,44.8461418z"/>
			<path class="st0" d="M169.9087219,57.3872757v-34.967247c0-1.7005444,0.9343872-2.6569118,2.5951538-2.6569118h0.6748352
				c1.6611328,0,2.5951538,0.9563675,2.5951538,2.6569118v34.967247c0,1.7005463-0.934021,2.6572914-2.5951538,2.6572914h-0.6748352
				C170.8431091,60.0445671,169.9087219,59.087822,169.9087219,57.3872757z"/>
			<path class="st0" d="M181.5870819,44.8461418c0-10.9474411,7.4224548-15.7834587,15.0006409-15.7834587
				c7.5777893,0,15.0517731,4.8360176,15.0517731,15.7834587c0,11.0535393-7.4220734,15.8891754-15.0002441,15.8891754
				C189.0095367,60.7353172,181.5870819,55.8996811,181.5870819,44.8461418z M205.8262787,44.8461418
				c0-6.6430321-3.7368011-10.7348747-9.2385559-10.7348747c-5.5021515,0-9.1874237,4.0387955-9.1874237,10.7348747
				c0,6.7487526,3.6852722,10.7875443,9.2389526,10.7875443C202.1410065,55.6336861,205.8262787,51.5418472,205.8262787,44.8461418z
				"/>
			<path class="st0" d="M241.7430725,29.6477203c1.6603851,0,2.5947723,0.9567451,2.5947723,2.6572876v25.0830269
				c0,1.7005424-0.9343872,2.6569099-2.5947723,2.6569099h-0.6229248c-1.6611328,0-2.5955353-0.9563675-2.5955353-2.6569099
				V54.365097c-1.3504181,3.5249939-4.7212067,6.2110786-9.7046204,6.2110786
				c-8.2010956,0-11.9901886-4.8360176-11.9901886-14.4546242V32.3042526c0-1.7005463,0.9343872-2.6569118,2.5947723-2.6569118
				h0.6229248c1.6611328,0,2.59552,0.9563656,2.59552,2.6569118v13.3387375c0,6.6426544,2.4917145,9.7781258,7.9934692,9.7781258
				c5.6055756,0,7.8896484-3.7727966,7.8896484-10.4688797V32.3042526c0-1.7005463,0.9336243-2.6569118,2.5947723-2.6569118
				h0.6229248L241.7430725,29.6477203z"/>
			<path class="st0" d="M250.4117584,44.8461418c0-10.4692574,6.2285004-15.7834587,13.5990448-15.7834587
				c4.671936,0,8.8763123,2.3382492,10.5367126,6.5365601V22.4200287c0-1.7005444,0.9343872-2.6569118,2.59552-2.6569118h0.6229248
				c1.6611328,0,2.5947571,0.9563675,2.5947571,2.6569118v34.9141998c0,1.7005463-0.9336243,2.6572914-2.5947571,2.6572914
				h-0.6229248c-1.6611328,0-2.59552-0.9567451-2.59552-2.6572914V54.252182
				c-1.6604004,4.0918388-5.8647766,6.4831352-10.484436,6.4831352
				C256.6925659,60.7353172,250.4117584,55.3680687,250.4117584,44.8461418z M274.7036133,44.8461418
				c0-6.6430321-3.7375488-10.7348747-9.2908325-10.7348747c-5.4502563,0-9.1870422,4.0387955-9.1870422,10.7348747
				c0,6.7487526,3.7367859,10.7875443,9.290863,10.7875443C271.0183411,55.6336861,274.7036133,51.5418472,274.7036133,44.8461418z"
				/>
		</g>
	</g>
	<g>
		<path class="st0" d="M285.3062439,21.2613239v-4.4658222h-1.2848816c-0.5077209,0-0.7930603-0.2273464-0.7930603-0.6498299
			c0-0.4221048,0.2853394-0.6494503,0.7930603-0.6494503h3.9175415c0.5077515,0,0.7930603,0.2273455,0.7930603,0.6494503
			c0,0.4224834-0.2853088,0.6498299-0.7930603,0.6498299h-1.2530518v4.4658222c0,0.5194836-0.2379456,0.8120022-0.6820374,0.8120022
			C285.5597534,22.0733261,285.3062439,21.7808075,285.3062439,21.2613239z M289.4776611,22.089241
			c-0.4281616,0-0.6551208-0.3262405-0.5391846-0.8930893l1.0151062-4.9853077
			c0.0950928-0.4709835,0.3804016-0.7146225,0.8563232-0.7146225h0.2379456c0.4440918,0,0.7423096,0.2125683,0.9040833,0.6331577
			l1.6493835,4.2873554l1.6653137-4.2873554c0.1648254-0.4255152,0.4759216-0.6331577,0.9199829-0.6331577h0.2220459
			c0.4759216,0,0.7612305,0.243639,0.8563538,0.7146225l0.999176,4.9853077
			c0.1140442,0.5687428-0.0791931,0.8934669-0.5073547,0.8934669c-0.4599915,0-0.7438049-0.2436371-0.8404236-0.7146225
			l-0.8407898-4.0763035l-1.5861206,4.1573906c-0.1663513,0.4353657-0.4440918,0.6331577-0.8722534,0.6331577
			c-0.4440918,0-0.7218323-0.1977921-0.8881531-0.6331577l-1.5861206-4.1573906l-0.8248901,4.0763035
			c-0.0950928,0.4709854-0.3804321,0.7146225-0.8404236,0.7146225V22.089241z"/>
	</g>
	<path class="st0" d="M92.8593826,27.4228897c-3.6873016-14.2896566-16.5093002-24.49053-31.121624-24.49053
		c-14.6140518,0-27.4377327,10.2038097-31.1222458,24.4944859C14.2692547,29.1085396,1.703586,43.1595764,1.703586,60.1612778
		c0,18.1446304,14.4413633,32.9063644,32.1924973,32.9063644H89.630394c17.7511368,0,32.1928787-14.761734,32.1928787-32.9063644
		C121.8232727,43.1264954,109.2295837,29.0717602,92.8593826,27.4228897z M37.4778862,32.0398521
		c-0.1606331,1.0788956-0.2607574,2.1696548-0.2832108,3.2672615c-1.0198555-0.1407166-2.0597267-0.2085648-3.0927277-0.2177086
		c0.0282784-1.0993347,0.1161385-2.1964417,0.2677498-3.2837906C35.4107475,31.823801,36.4486046,31.9028511,37.4778862,32.0398521z
		 M89.1051331,31.7962112c0.1523895,1.0906448,0.2405319,2.1913261,0.2688599,3.2940941
		c-1.0415726,0.01054-2.0736771,0.0809669-3.0927734,0.2232475c-0.0221939-1.1002808-0.1228638-2.1935272-0.2843475-3.2742462
		C87.0251541,31.8992748,88.0634384,31.8150864,89.1051331,31.7962112z M33.4196053,47.7476463l2.9945183-0.1187897
		L35.48769,44.7788925c-0.5411987-1.664547-0.9251518-3.388134-1.1549377-5.1454887
		c1.5730896,0.0349312,3.1340981,0.2488251,4.6450691,0.6557961l3.1741219,0.8546295l-0.3262405-3.271122
		c-0.0651703-0.6532402-0.0985146-1.337738-0.0985146-2.0341759c0-0.9494514,0.0691986-1.8935509,0.1942863-2.8270149
		c1.6131325,0.5005836,3.1798973,1.1494446,4.6769676,1.9466209l2.7099609,1.4426956l0.5838966-3.0140305
		c1.119297-5.7781754,6.1011963-9.9721317,11.845459-9.9721317c5.7529716,0,10.7360115,4.2026711,11.8488655,9.9927807
		l0.5816269,3.0259705l2.7171555-1.4534988c1.4931412-0.7987862,3.0572052-1.4497032,4.6703186-1.9530602
		c0.1243286,0.9283257,0.1929779,1.8673325,0.1929779,2.8116684c0,0.6682091-0.0337219,1.3621788-0.0996475,2.0625916
		l-0.3080597,3.2692299l3.1669235-0.8680801c1.50103-0.4113083,3.0492706-0.637043,4.637207-0.6739388
		c-0.2287903,1.7534485-0.6133804,3.478672-1.1569214,5.1507492l-0.9298477,2.8609543l3.0062637,0.1079865
		c6.5312576,0.2345467,11.6476669,5.6870499,11.6476669,12.4132538c0,6.8504868-5.4199142,12.4238586-12.0818939,12.4238586
		H33.8960838c-6.6617908,0-12.0815182-5.5733719-12.0815182-12.4238586
		C21.8145657,53.458374,26.91222,48.0056839,33.4196053,47.7476463z M77.2620392,29.7723866
		c-2.4197083-6.4539585-8.5595551-10.8955307-15.5242805-10.8955307c-6.9556351,0-13.0939636,4.4341831-15.5182228,10.877533
		c-1.0489159-0.4446964-2.1229095-0.8247185-3.212677-1.152689c2.8975639-7.9312534,10.3123665-13.3009882,18.7308998-13.3009882
		c8.4258232,0,15.8415718,5.3745413,18.7339745,13.3154821C79.38237,28.9454899,78.3094177,29.3266239,77.2620392,29.7723866z
		 M29.8155632,40.0536842c0.1488647,1.1840668,0.3520546,2.3570747,0.6239223,3.5104256
		c-7.5709839,1.6166153-13.162735,8.4273186-13.162735,16.597168c0,9.3528061,7.4554157,16.9616776,16.6193333,16.9616776H89.630394
		c9.164299,0,16.6197128-7.6088715,16.6197128-16.9616776c0-8.1988373-5.6116486-15.0125694-13.2110443-16.6066399
		c0.2725754-1.1555786,0.4756927-2.328537,0.6238022-3.5107346c4.0813675,0.8577309,7.8135757,3.0059586,10.6798096,6.1953049
		c3.4170074,3.8019753,5.2986679,8.7463608,5.2986679,13.9220695c0,11.3269196-8.9771118,20.5418015-20.0109482,20.5418015
		H33.8960838c-11.0340233,0-20.0107594-9.2148819-20.0107594-20.5418015c0-5.1683197,1.8765478-10.1072121,5.283699-13.9069138
		C22.0244827,43.0701332,25.7435455,40.9203682,29.8155632,40.0536842z M61.7377586,7.4701757
		c12.1082497,0,22.7886086,8.1858339,26.3701286,19.8235054c-1.0649185,0.0512009-2.1254654,0.1568222-3.1756821,0.3144245
		C81.542984,17.5897484,72.2858276,10.7627068,61.7377586,10.7627068c-10.5420837,0-19.7999229,6.8243427-23.1938591,16.8376083
		c-1.0508804-0.1558037-2.1112328-0.2593155-3.1753502-0.3087883C38.949688,15.6558676,49.6299782,7.4701757,61.7377586,7.4701757z
		 M89.630394,88.5296326H33.8960838c-15.2488194,0-27.6546822-12.7260361-27.6546822-28.3683548
		c0-14.1960182,10.1227703-26.0049133,23.5174923-28.0522995c-0.1242352,1.118042-0.1924629,2.2428589-0.2045403,3.3685951
		c-5.2743683,0.9622421-10.102026,3.6636505-13.7638741,7.7472229c-4.1549282,4.6333008-6.4431601,10.6481056-6.4431601,16.9364815
		c0,13.8290482,11.0126143,25.0798035,24.5487633,25.0798035H89.630394c13.5361481,0,24.5487671-11.2507553,24.5487671-25.0798035
		c0-6.2974701-2.2946777-12.3190918-6.4611588-16.9552345c-3.6729126-4.086937-8.5126724-6.7848892-13.7966766-7.7371368
		c-0.0123596-1.1249809-0.0807571-2.2491341-0.2050858-3.3664169c13.4222183,2.0206757,23.5692139,13.8341827,23.5692139,28.0587883
		C117.2854538,75.8035965,104.8792114,88.5296326,89.630394,88.5296326z"/>
</g>
</svg>
