<svg xmlns="http://www.w3.org/2000/svg" xmlns:svgjs="http://svgjs.com/svgjs" xmlns:xlink="http://www.w3.org/1999/xlink" width="288" height="288"><svg xmlns="http://www.w3.org/2000/svg" xmlns:xlink="http://www.w3.org/1999/xlink" width="288" height="288" viewBox="0 0 186 94"><defs><polygon id="a" fill="#fff" points="0 0 13.652 0 13.652 13.521 0 13.521" class="color000 svgShape"/><polygon id="c" fill="#fff" points="0 88 155.652 88 155.652 0 0 0" class="color000 svgShape"/></defs><g fill="none" fill-rule="evenodd" transform="translate(4 3)"><g fill="#fff" class="color000 svgShape" transform="translate(142 .527)"><mask id="b" fill="#fff"><use xlink:href="#a"/></mask><path d="M0,6.76101025 C0,3.02743916 3.05611141,0 6.8259012,0 C10.595691,0 13.6518024,3.02743916 13.6518024,6.76101025 C13.6518024,10.4945813 10.595691,13.5206678 6.8259012,13.5206678 C3.05611141,13.5206678 0,10.4945813 0,6.76101025" class="color000 svgShape" mask="url(#b)"/></g><path fill="#fff" d="M87.9174723 7.28844481C87.9174723 3.55487372 90.9735837.527434553 94.7433735.527434553 98.5131632.527434553 101.569275 3.55487372 101.569275 7.28844481 101.569275 11.0220159 98.5131632 14.0481023 94.7433735 14.0481023 90.9735837 14.0481023 87.9174723 11.0220159 87.9174723 7.28844481M33.8343027 7.28844481C33.8343027 3.55487372 36.8904141.527434553 40.6602039.527434553 44.4299936.527434553 47.486105 3.55487372 47.486105 7.28844481 47.486105 11.0220159 44.4299936 14.0481023 40.6602039 14.0481023 36.8904141 14.0481023 33.8343027 11.0220159 33.8343027 7.28844481M87.4438493 61.4764946C87.4438493 57.7199268 90.518884 54.6735493 94.3130038 54.6735493 98.1057718 54.6735493 101.180807 57.7199268 101.180807 61.4764946 101.180807 65.2330623 98.1057718 68.2794398 94.3130038 68.2794398 90.518884 68.2794398 87.4438493 65.2330623 87.4438493 61.4764946" class="color000 svgShape"/><mask id="d" fill="#fff"><use xlink:href="#c"/></mask><polygon fill="#fff" points="35.847 59.72 46.113 59.72 46.113 21.348 35.847 21.348" class="color000 svgShape" mask="url(#d)"/><polygon fill="#fff" points="144.014 59.72 154.28 59.72 154.28 35.083 144.014 35.083" class="color000 svgShape" mask="url(#d)"/><path fill="#fff" d="M94.6329425,35.0827172 C88.4085316,35.0827172 82.6747746,37.2011129 78.1250749,40.7466527 L78.1250749,-0.000676371574 L67.8605415,-0.000676371574 L67.8605415,59.9014957 L67.942993,59.9014957 L78.1250749,59.9014957 L78.4440676,59.9014957 C79.2888573,51.794506 86.2269466,45.4487879 94.6329425,45.4487879 C103.606637,45.4487879 110.908324,52.6792 110.908324,61.5667225 C110.908324,69.8915039 104.501439,76.763439 96.3144121,77.5994343 L96.3144121,87.9993236 C110.2798,87.1362735 121.375607,75.6109019 121.375607,61.5667225 C121.375607,46.9638602 109.379592,35.0827172 94.6329425,35.0827172" class="color000 svgShape" mask="url(#d)"/><polygon fill="#fff" points="0 73.403 1.911 73.403 1.911 63.266 0 63.266" class="color000 svgShape" mask="url(#d)"/><path fill="#fff" d="M5.3548857 66.2205648L5.3548857 67.3785129 5.55763524 67.3785129C5.84689125 66.7129633 6.51190974 66.1042289 7.82843009 66.1042289 9.42068982 66.1042289 10.6223188 67.2486496 10.6223188 69.1167878L10.6223188 73.4036309 8.79892456 73.4036309 8.79892456 69.289939C8.79892456 68.2916145 8.22041254 67.6977603 7.1782799 67.6977603 6.00638755 67.6977603 5.38327063 68.4214779 5.38327063 69.6957619L5.38327063 73.4036309 3.5612281 73.4036309 3.5612281 66.2205648 5.3548857 66.2205648zM13.2579276 66.2205648L13.2579276 64.7433693C13.2579276 63.9033158 13.8661762 63.2661737 14.7055593 63.2661737L16.5857234 63.2661737 16.5857234 64.8299448 15.4868209 64.8299448C15.2259498 64.8299448 15.0813218 64.9760411 15.0813218 65.2641754L15.0813218 66.2205648 16.9614859 66.2205648 16.9614859 67.7843358 15.0813218 67.7843358 15.0813218 73.4036309 13.2579276 73.4036309 13.2579276 67.7843358 11.4358851 67.7843358 11.4358851 66.2205648 13.2579276 66.2205648zM21.2905941 71.9835211C22.4476181 71.9835211 23.2302314 71.11506 23.2302314 69.8123684 23.2302314 68.508324 22.4476181 67.6398629 21.2905941 67.6398629 20.13357 67.6398629 19.3523085 68.508324 19.3523085 69.8123684 19.3523085 71.11506 20.13357 71.9835211 21.2905941 71.9835211M21.2905941 66.0179238C23.4032443 66.0179238 25.0536256 67.5532873 25.0536256 69.8123684 25.0536256 72.0714494 23.4032443 73.6054602 21.2905941 73.6054602 19.1779439 73.6054602 17.5289143 72.0714494 17.5289143 69.8123684 17.5289143 67.5532873 19.1779439 66.0179238 21.2905941 66.0179238M28.0362065 67.2631239L28.238956 67.2631239C28.5133437 66.4663582 29.1215923 66.1917513 30.0326136 66.1917513L30.7273687 66.1917513 30.7273687 67.842098 29.6568511 67.842098C28.7309616 67.842098 28.0645914 68.3344965 28.0645914 69.3477011L28.0645914 73.4032251 26.2425489 73.4032251 26.2425489 66.2201589 28.0362065 66.2201589 28.0362065 67.2631239zM33.4497544 66.2205648L33.4497544 67.2919373 33.6525039 67.2919373C33.9566282 66.5979801 34.5500085 66.1042289 35.5475363 66.1042289 36.4734258 66.1042289 37.1533126 66.5979801 37.4574369 67.3216977L37.6601865 67.3216977C37.9791791 66.6547953 38.5576911 66.1042289 39.6998469 66.1042289 41.0163672 66.1042289 42.0733681 67.103906 42.0733681 68.5959817L42.0733681 73.4036309 40.2499739 73.4036309 40.2499739 68.7393725C40.2499739 68.0738229 39.7728367 67.6977603 39.0780816 67.6977603 38.3265566 67.6977603 37.7764296 68.1319908 37.7764296 69.0302123L37.7764296 73.4036309 35.9530354 73.4036309 35.9530354 68.7393725C35.9530354 68.0738229 35.4758981 67.6977603 34.781143 67.6977603 34.0282664 67.6977603 33.479491 68.1319908 33.479491 69.0302123L33.479491 73.4036309 31.6560968 73.4036309 31.6560968 66.2205648 33.4497544 66.2205648zM46.3743617 72.0993159C47.6476288 72.0993159 48.3572522 71.3471908 48.3572522 70.361041L48.3572522 70.2460578 46.1580956 70.5071373C45.4782088 70.5937128 45.1443479 70.8399121 45.1443479 71.2592624 45.1443479 71.751661 45.5647152 72.0993159 46.3743617 72.0993159M46.9528738 66.0187355C48.9073793 66.0187355 50.1806464 67.1320431 50.1806464 68.8121501L50.1806464 73.4033603 48.3856372 73.4033603 48.3856372 72.3901557 48.1828876 72.3901557C47.9517532 72.8676741 47.4448793 73.6049191 45.9256094 73.6049191 44.3049648 73.6049191 43.2357988 72.7378107 43.2357988 71.3607182 43.2357988 70.2176502 44.2333266 69.4208845 45.6066168 69.276141L48.3572522 68.9717738 48.3572522 68.7986227C48.3572522 68.1168401 47.8355101 67.5811538 46.851499 67.5811538 45.8972245 67.5811538 45.3038442 68.0735523 44.8550918 68.8270303L43.3790752 67.8719936C44.2333266 66.7992683 45.2024694 66.0187355 46.9528738 66.0187355M52.642161 66.2205648L52.642161 63.9898913 54.4655552 63.9898913 54.4655552 66.2205648 56.4335774 66.2205648 56.4335774 67.7843358 54.4655552 67.7843358 54.4655552 71.4042765C54.4655552 71.6951163 54.6101832 71.8385071 54.8710543 71.8385071L56.0280784 71.8385071 56.0280784 73.4036309 54.0600562 73.4036309C53.2504097 73.4036309 52.642161 72.8233041 52.642161 72.0130109L52.642161 67.7843358 50.8201185 67.7843358 50.8201185 66.2205648 52.642161 66.2205648zM57.651156 73.4025487L59.4745502 73.4025487 59.4745502 66.2194826 57.651156 66.2194826 57.651156 73.4025487zM58.5621773 62.8903817C59.286669 62.8903817 59.8503127 63.3976604 59.8503127 64.1349054 59.8503127 64.8735031 59.286669 65.3807818 58.5621773 65.3807818 57.8390373 65.3807818 57.2753935 64.8735031 57.2753935 64.1349054 57.2753935 63.3976604 57.8390373 62.8903817 58.5621773 62.8903817L58.5621773 62.8903817zM64.4246127 71.9835211C65.5816367 71.9835211 66.3628983 71.11506 66.3628983 69.8123684 66.3628983 68.508324 65.5816367 67.6398629 64.4246127 67.6398629 63.2675886 67.6398629 62.4849754 68.508324 62.4849754 69.8123684 62.4849754 71.11506 63.2675886 71.9835211 64.4246127 71.9835211M64.4246127 66.0179238C66.5372629 66.0179238 68.1862925 67.5532873 68.1862925 69.8123684 68.1862925 72.0714494 66.5372629 73.6054602 64.4246127 73.6054602 62.3119624 73.6054602 60.6615812 72.0714494 60.6615812 69.8123684 60.6615812 67.5532873 62.3119624 66.0179238 64.4246127 66.0179238M71.169414 66.2205648L71.169414 67.3785129 71.3721636 67.3785129C71.6614196 66.7129633 72.3264381 66.1042289 73.6429584 66.1042289 75.2352182 66.1042289 76.4368471 67.2486496 76.4368471 69.1167878L76.4368471 73.4036309 74.6121012 73.4036309 74.6121012 69.289939C74.6121012 68.2916145 74.0335892 67.6977603 72.9928082 67.6977603 71.8209159 67.6977603 71.1991506 68.4214779 71.1991506 69.6957619L71.1991506 73.4036309 69.3757564 73.4036309 69.3757564 66.2205648 71.169414 66.2205648zM26.3577106 85.029376L28.8745082 85.029376C29.6855064 85.029376 30.2342818 84.6235531 30.2342818 83.7983798 30.2342818 82.9732065 29.6855064 82.5538561 28.8745082 82.5538561L26.3577106 82.5538561 26.3577106 85.029376zM26.3577106 80.8155811L28.8745082 80.8155811C29.6855064 80.8155811 30.2342818 80.4097582 30.2342818 79.5845849 30.2342818 78.7594116 29.6855064 78.3684688 28.8745082 78.3684688L26.3577106 78.3684688 26.3577106 80.8155811zM29.0637411 76.6301938C30.8127938 76.6301938 32.057676 77.6149909 32.057676 79.3532658 32.057676 80.5693819 31.334536 81.3228598 30.3505249 81.5974667L30.3505249 81.7706178C31.334536 82.0465774 32.057676 82.8000553 32.057676 84.0296989 32.057676 85.7098059 30.7992772 86.767651 29.0637411 86.767651L24.4464583 86.767651 24.4464583 76.6301938 29.0637411 76.6301938zM38.4859178 86.7669746L38.4859178 85.6090265 38.2831682 85.6090265C37.9939122 86.2745761 37.3288937 86.8833105 36.0110217 86.8833105 34.4201137 86.8833105 33.2184847 85.7388898 33.2184847 83.8707515L33.2184847 79.5839085 35.0418789 79.5839085 35.0418789 83.6976004C35.0418789 84.6959249 35.6203909 85.2897791 36.6625236 85.2897791 37.8344159 85.2897791 38.4561812 84.5660615 38.4561812 83.2917775L38.4561812 79.5839085 40.2795754 79.5839085 40.2795754 86.7669746 38.4859178 86.7669746zM41.904275 86.767651L43.7263176 86.767651 43.7263176 79.5845849 41.904275 79.5845849 41.904275 86.767651zM42.8139446 76.2541312C43.5384363 76.2541312 44.1020801 76.7614099 44.1020801 77.4986549 44.1020801 78.2372527 43.5384363 78.7445314 42.8139446 78.7445314 42.0908046 78.7445314 41.5258092 78.2372527 41.5258092 77.4986549 41.5258092 76.7614099 42.0908046 76.2541312 42.8139446 76.2541312L42.8139446 76.2541312z" class="color000 svgShape" mask="url(#d)"/><polygon fill="#fff" points="45.348 86.768 47.17 86.768 47.17 76.632 45.348 76.632" class="color000 svgShape" mask="url(#d)"/><path fill="#fff" d="M50.1819981 83.1758474C50.1819981 84.5664673 51.0497661 85.3483529 52.1500203 85.3483529 53.2786594 85.3483529 54.1180425 84.5380597 54.1180425 83.1758474 54.1180425 81.813635 53.2786594 81.0033419 52.1500203 81.0033419 51.0497661 81.0033419 50.1819981 81.7852274 50.1819981 83.1758474L50.1819981 83.1758474zM55.9400851 86.7673804L54.1464275 86.7673804 54.1464275 85.7528231 53.9436779 85.7528231C53.5679154 86.3615575 52.9312819 86.9702919 51.6580148 86.9702919 49.8643572 86.9702919 48.3586039 85.3767605 48.3586039 83.1758474 48.3586039 80.9749343 49.8643572 79.3814029 51.6580148 79.3814029 52.9312819 79.3814029 53.5679154 79.9901373 53.9436779 80.5988717L54.1180425 80.5988717 54.1180425 76.6299233 55.9400851 76.6299233 55.9400851 86.7673804zM62.3679213 82.4375202C62.2381616 81.5257713 61.6582979 80.9467972 60.7188917 80.9467972 59.6902757 80.9467972 59.1550169 81.5541789 59.0103889 82.4375202L62.3679213 82.4375202zM60.7324084 79.3816734C62.8166736 79.3816734 64.2197005 80.8439887 64.2197005 83.0016141L64.2197005 83.7118042 58.9968723 83.7118042C59.0685105 84.6668409 59.7483973 85.4054386 60.7905299 85.4054386 61.8042776 85.4054386 62.3395364 84.8413447 62.5841875 84.3340661L64.0750725 85.2025272C63.5830669 85.9560051 62.7436838 86.9705625 60.8202665 86.9705625 58.6778797 86.9705625 57.1302249 85.3486234 57.1302249 83.11795 57.1302249 80.9467972 58.6211098 79.3816734 60.7324084 79.3816734L60.7324084 79.3816734zM67.1456467 80.627144L67.3483962 80.627144C67.6227839 79.8303783 68.2310325 79.5557714 69.1434055 79.5557714L69.8368089 79.5557714 69.8368089 81.2061181 68.7662913 81.2061181C67.8404018 81.2061181 67.1753833 81.6985166 67.1753833 82.7117212L67.1753833 86.7672452 65.3519891 86.7672452 65.3519891 79.5841791 67.1456467 79.5841791 67.1456467 80.627144zM73.2676015 79.3814029C74.7436181 79.3814029 75.7857507 80.0334251 76.7548936 81.0479824L75.4383732 82.0895946C74.8882461 81.4375724 74.1651061 80.8585984 73.2094799 80.8585984 72.5295931 80.8585984 72.1538306 81.1480854 72.1538306 81.582316 72.1538306 82.1044748 72.6890894 82.2343382 73.4406144 82.3222665L73.6879688 82.3506741C75.9871486 82.6252809 76.8414 83.2191352 76.8414 84.5380597 76.8414 85.9408544 75.5248797 86.9702919 73.614979 86.9702919 71.6320885 86.9702919 70.533186 85.9557346 69.8681675 84.9425299L71.3144475 84.0294283C71.7631999 84.9709375 72.7323427 85.4646888 73.6582322 85.4646888 74.3962406 85.4646888 75.0761274 85.1454414 75.0761274 84.5799948 75.0761274 84.0443085 74.338119 83.9428528 73.5568575 83.8562772L73.3122064 83.8278696C71.2995792 83.5965505 70.388558 82.9445283 70.388558 81.6120763 70.388558 80.2796243 71.6037036 79.3814029 73.2676015 79.3814029" class="color000 svgShape" mask="url(#d)"/><g fill="#fff" fill-rule="nonzero" class="color000 svgShape" transform="translate(169.337 .264)"><polygon points="3.919 .803 2.445 .803 2.445 4.813 1.454 4.813 1.454 .803 0 .803 0 0 3.919 0" class="color000 svgShape"/><polygon points="5.779 0 7.015 3.49 8.245 0 9.547 0 9.547 4.813 8.552 4.813 8.552 3.497 8.651 1.226 7.352 4.813 6.672 4.813 5.376 1.23 5.475 3.497 5.475 4.813 4.484 4.813 4.484 0" class="color000 svgShape"/></g></g></svg></svg>