<?xml version="1.0" encoding="UTF-8"?>
<svg width="186px" height="94px" viewBox="0 0 186 94" version="1.1" xmlns="http://www.w3.org/2000/svg" xmlns:xlink="http://www.w3.org/1999/xlink">
    <title>ibi logo lockup - black</title>
    <defs>
        <polygon id="path-1" points="0 0 13.6516672 0 13.6516672 13.5206678 0 13.5206678"></polygon>
        <polygon id="path-3" points="0 88 155.652174 88 155.652174 0 0 0"></polygon>
    </defs>
    <g id="ibi-logo-lockup---black" stroke="none" stroke-width="1" fill="none" fill-rule="evenodd">
        <g id="Logo/ibi" transform="translate(4.000000, 3.000000)">
            <g id="Group-33">
                <g id="Group-3" transform="translate(142.000507, 0.527435)">
                    <mask id="mask-2" fill="white">
                        <use xlink:href="#path-1"></use>
                    </mask>
                    <g id="Clip-2"></g>
                    <path d="M0,6.76101025 C0,3.02743916 3.05611141,0 6.8259012,0 C10.595691,0 13.6518024,3.02743916 13.6518024,6.76101025 C13.6518024,10.4945813 10.595691,13.5206678 6.8259012,13.5206678 C3.05611141,13.5206678 0,10.4945813 0,6.76101025" id="Fill-1" fill="#000000" mask="url(#mask-2)"></path>
                </g>
                <path d="M87.9174723,7.28844481 C87.9174723,3.55487372 90.9735837,0.527434553 94.7433735,0.527434553 C98.5131632,0.527434553 101.569275,3.55487372 101.569275,7.28844481 C101.569275,11.0220159 98.5131632,14.0481023 94.7433735,14.0481023 C90.9735837,14.0481023 87.9174723,11.0220159 87.9174723,7.28844481" id="Fill-4" fill="#000000"></path>
                <path d="M33.8343027,7.28844481 C33.8343027,3.55487372 36.8904141,0.527434553 40.6602039,0.527434553 C44.4299936,0.527434553 47.486105,3.55487372 47.486105,7.28844481 C47.486105,11.0220159 44.4299936,14.0481023 40.6602039,14.0481023 C36.8904141,14.0481023 33.8343027,11.0220159 33.8343027,7.28844481" id="Fill-6" fill="#000000"></path>
                <path d="M87.4438493,61.4764946 C87.4438493,57.7199268 90.518884,54.6735493 94.3130038,54.6735493 C98.1057718,54.6735493 101.180807,57.7199268 101.180807,61.4764946 C101.180807,65.2330623 98.1057718,68.2794398 94.3130038,68.2794398 C90.518884,68.2794398 87.4438493,65.2330623 87.4438493,61.4764946" id="Fill-8" fill="#000000"></path>
                <mask id="mask-4" fill="white">
                    <use xlink:href="#path-3"></use>
                </mask>
                <g id="Clip-11"></g>
                <polygon id="Fill-10" fill="#000000" mask="url(#mask-4)" points="35.8474704 59.7195518 46.1133555 59.7195518 46.1133555 21.3476396 35.8474704 21.3476396"></polygon>
                <polygon id="Fill-12" fill="#000000" mask="url(#mask-4)" points="144.01435 59.7195518 154.280235 59.7195518 154.280235 35.0833935 144.01435 35.0833935"></polygon>
                <path d="M94.6329425,35.0827172 C88.4085316,35.0827172 82.6747746,37.2011129 78.1250749,40.7466527 L78.1250749,-0.000676371574 L67.8605415,-0.000676371574 L67.8605415,59.9014957 L67.942993,59.9014957 L78.1250749,59.9014957 L78.4440676,59.9014957 C79.2888573,51.794506 86.2269466,45.4487879 94.6329425,45.4487879 C103.606637,45.4487879 110.908324,52.6792 110.908324,61.5667225 C110.908324,69.8915039 104.501439,76.763439 96.3144121,77.5994343 L96.3144121,87.9993236 C110.2798,87.1362735 121.375607,75.6109019 121.375607,61.5667225 C121.375607,46.9638602 109.379592,35.0827172 94.6329425,35.0827172" id="Fill-13" fill="#000000" mask="url(#mask-4)"></path>
                <polygon id="Fill-14" fill="#000000" mask="url(#mask-4)" points="0 73.4025487 1.91125234 73.4025487 1.91125234 63.2664443 0 63.2664443"></polygon>
                <path d="M5.3548857,66.2205648 L5.3548857,67.3785129 L5.55763524,67.3785129 C5.84689125,66.7129633 6.51190974,66.1042289 7.82843009,66.1042289 C9.42068982,66.1042289 10.6223188,67.2486496 10.6223188,69.1167878 L10.6223188,73.4036309 L8.79892456,73.4036309 L8.79892456,69.289939 C8.79892456,68.2916145 8.22041254,67.6977603 7.1782799,67.6977603 C6.00638755,67.6977603 5.38327063,68.4214779 5.38327063,69.6957619 L5.38327063,73.4036309 L3.5612281,73.4036309 L3.5612281,66.2205648 L5.3548857,66.2205648 Z" id="Fill-15" fill="#000000" mask="url(#mask-4)"></path>
                <path d="M13.2579276,66.2205648 L13.2579276,64.7433693 C13.2579276,63.9033158 13.8661762,63.2661737 14.7055593,63.2661737 L16.5857234,63.2661737 L16.5857234,64.8299448 L15.4868209,64.8299448 C15.2259498,64.8299448 15.0813218,64.9760411 15.0813218,65.2641754 L15.0813218,66.2205648 L16.9614859,66.2205648 L16.9614859,67.7843358 L15.0813218,67.7843358 L15.0813218,73.4036309 L13.2579276,73.4036309 L13.2579276,67.7843358 L11.4358851,67.7843358 L11.4358851,66.2205648 L13.2579276,66.2205648 Z" id="Fill-16" fill="#000000" mask="url(#mask-4)"></path>
                <path d="M21.2905941,71.9835211 C22.4476181,71.9835211 23.2302314,71.11506 23.2302314,69.8123684 C23.2302314,68.508324 22.4476181,67.6398629 21.2905941,67.6398629 C20.13357,67.6398629 19.3523085,68.508324 19.3523085,69.8123684 C19.3523085,71.11506 20.13357,71.9835211 21.2905941,71.9835211 M21.2905941,66.0179238 C23.4032443,66.0179238 25.0536256,67.5532873 25.0536256,69.8123684 C25.0536256,72.0714494 23.4032443,73.6054602 21.2905941,73.6054602 C19.1779439,73.6054602 17.5289143,72.0714494 17.5289143,69.8123684 C17.5289143,67.5532873 19.1779439,66.0179238 21.2905941,66.0179238" id="Fill-17" fill="#000000" mask="url(#mask-4)"></path>
                <path d="M28.0362065,67.2631239 L28.238956,67.2631239 C28.5133437,66.4663582 29.1215923,66.1917513 30.0326136,66.1917513 L30.7273687,66.1917513 L30.7273687,67.842098 L29.6568511,67.842098 C28.7309616,67.842098 28.0645914,68.3344965 28.0645914,69.3477011 L28.0645914,73.4032251 L26.2425489,73.4032251 L26.2425489,66.2201589 L28.0362065,66.2201589 L28.0362065,67.2631239 Z" id="Fill-18" fill="#000000" mask="url(#mask-4)"></path>
                <path d="M33.4497544,66.2205648 L33.4497544,67.2919373 L33.6525039,67.2919373 C33.9566282,66.5979801 34.5500085,66.1042289 35.5475363,66.1042289 C36.4734258,66.1042289 37.1533126,66.5979801 37.4574369,67.3216977 L37.6601865,67.3216977 C37.9791791,66.6547953 38.5576911,66.1042289 39.6998469,66.1042289 C41.0163672,66.1042289 42.0733681,67.103906 42.0733681,68.5959817 L42.0733681,73.4036309 L40.2499739,73.4036309 L40.2499739,68.7393725 C40.2499739,68.0738229 39.7728367,67.6977603 39.0780816,67.6977603 C38.3265566,67.6977603 37.7764296,68.1319908 37.7764296,69.0302123 L37.7764296,73.4036309 L35.9530354,73.4036309 L35.9530354,68.7393725 C35.9530354,68.0738229 35.4758981,67.6977603 34.781143,67.6977603 C34.0282664,67.6977603 33.479491,68.1319908 33.479491,69.0302123 L33.479491,73.4036309 L31.6560968,73.4036309 L31.6560968,66.2205648 L33.4497544,66.2205648 Z" id="Fill-19" fill="#000000" mask="url(#mask-4)"></path>
                <path d="M46.3743617,72.0993159 C47.6476288,72.0993159 48.3572522,71.3471908 48.3572522,70.361041 L48.3572522,70.2460578 L46.1580956,70.5071373 C45.4782088,70.5937128 45.1443479,70.8399121 45.1443479,71.2592624 C45.1443479,71.751661 45.5647152,72.0993159 46.3743617,72.0993159 M46.9528738,66.0187355 C48.9073793,66.0187355 50.1806464,67.1320431 50.1806464,68.8121501 L50.1806464,73.4033603 L48.3856372,73.4033603 L48.3856372,72.3901557 L48.1828876,72.3901557 C47.9517532,72.8676741 47.4448793,73.6049191 45.9256094,73.6049191 C44.3049648,73.6049191 43.2357988,72.7378107 43.2357988,71.3607182 C43.2357988,70.2176502 44.2333266,69.4208845 45.6066168,69.276141 L48.3572522,68.9717738 L48.3572522,68.7986227 C48.3572522,68.1168401 47.8355101,67.5811538 46.851499,67.5811538 C45.8972245,67.5811538 45.3038442,68.0735523 44.8550918,68.8270303 L43.3790752,67.8719936 C44.2333266,66.7992683 45.2024694,66.0187355 46.9528738,66.0187355" id="Fill-20" fill="#000000" mask="url(#mask-4)"></path>
                <path d="M52.642161,66.2205648 L52.642161,63.9898913 L54.4655552,63.9898913 L54.4655552,66.2205648 L56.4335774,66.2205648 L56.4335774,67.7843358 L54.4655552,67.7843358 L54.4655552,71.4042765 C54.4655552,71.6951163 54.6101832,71.8385071 54.8710543,71.8385071 L56.0280784,71.8385071 L56.0280784,73.4036309 L54.0600562,73.4036309 C53.2504097,73.4036309 52.642161,72.8233041 52.642161,72.0130109 L52.642161,67.7843358 L50.8201185,67.7843358 L50.8201185,66.2205648 L52.642161,66.2205648 Z" id="Fill-21" fill="#000000" mask="url(#mask-4)"></path>
                <path d="M57.651156,73.4025487 L59.4745502,73.4025487 L59.4745502,66.2194826 L57.651156,66.2194826 L57.651156,73.4025487 Z M58.5621773,62.8903817 C59.286669,62.8903817 59.8503127,63.3976604 59.8503127,64.1349054 C59.8503127,64.8735031 59.286669,65.3807818 58.5621773,65.3807818 C57.8390373,65.3807818 57.2753935,64.8735031 57.2753935,64.1349054 C57.2753935,63.3976604 57.8390373,62.8903817 58.5621773,62.8903817 L58.5621773,62.8903817 Z" id="Fill-22" fill="#000000" mask="url(#mask-4)"></path>
                <path d="M64.4246127,71.9835211 C65.5816367,71.9835211 66.3628983,71.11506 66.3628983,69.8123684 C66.3628983,68.508324 65.5816367,67.6398629 64.4246127,67.6398629 C63.2675886,67.6398629 62.4849754,68.508324 62.4849754,69.8123684 C62.4849754,71.11506 63.2675886,71.9835211 64.4246127,71.9835211 M64.4246127,66.0179238 C66.5372629,66.0179238 68.1862925,67.5532873 68.1862925,69.8123684 C68.1862925,72.0714494 66.5372629,73.6054602 64.4246127,73.6054602 C62.3119624,73.6054602 60.6615812,72.0714494 60.6615812,69.8123684 C60.6615812,67.5532873 62.3119624,66.0179238 64.4246127,66.0179238" id="Fill-23" fill="#000000" mask="url(#mask-4)"></path>
                <path d="M71.169414,66.2205648 L71.169414,67.3785129 L71.3721636,67.3785129 C71.6614196,66.7129633 72.3264381,66.1042289 73.6429584,66.1042289 C75.2352182,66.1042289 76.4368471,67.2486496 76.4368471,69.1167878 L76.4368471,73.4036309 L74.6121012,73.4036309 L74.6121012,69.289939 C74.6121012,68.2916145 74.0335892,67.6977603 72.9928082,67.6977603 C71.8209159,67.6977603 71.1991506,68.4214779 71.1991506,69.6957619 L71.1991506,73.4036309 L69.3757564,73.4036309 L69.3757564,66.2205648 L71.169414,66.2205648 Z" id="Fill-24" fill="#000000" mask="url(#mask-4)"></path>
                <path d="M26.3577106,85.029376 L28.8745082,85.029376 C29.6855064,85.029376 30.2342818,84.6235531 30.2342818,83.7983798 C30.2342818,82.9732065 29.6855064,82.5538561 28.8745082,82.5538561 L26.3577106,82.5538561 L26.3577106,85.029376 Z M26.3577106,80.8155811 L28.8745082,80.8155811 C29.6855064,80.8155811 30.2342818,80.4097582 30.2342818,79.5845849 C30.2342818,78.7594116 29.6855064,78.3684688 28.8745082,78.3684688 L26.3577106,78.3684688 L26.3577106,80.8155811 Z M29.0637411,76.6301938 C30.8127938,76.6301938 32.057676,77.6149909 32.057676,79.3532658 C32.057676,80.5693819 31.334536,81.3228598 30.3505249,81.5974667 L30.3505249,81.7706178 C31.334536,82.0465774 32.057676,82.8000553 32.057676,84.0296989 C32.057676,85.7098059 30.7992772,86.767651 29.0637411,86.767651 L24.4464583,86.767651 L24.4464583,76.6301938 L29.0637411,76.6301938 Z" id="Fill-25" fill="#000000" mask="url(#mask-4)"></path>
                <path d="M38.4859178,86.7669746 L38.4859178,85.6090265 L38.2831682,85.6090265 C37.9939122,86.2745761 37.3288937,86.8833105 36.0110217,86.8833105 C34.4201137,86.8833105 33.2184847,85.7388898 33.2184847,83.8707515 L33.2184847,79.5839085 L35.0418789,79.5839085 L35.0418789,83.6976004 C35.0418789,84.6959249 35.6203909,85.2897791 36.6625236,85.2897791 C37.8344159,85.2897791 38.4561812,84.5660615 38.4561812,83.2917775 L38.4561812,79.5839085 L40.2795754,79.5839085 L40.2795754,86.7669746 L38.4859178,86.7669746 Z" id="Fill-26" fill="#000000" mask="url(#mask-4)"></path>
                <path d="M41.904275,86.767651 L43.7263176,86.767651 L43.7263176,79.5845849 L41.904275,79.5845849 L41.904275,86.767651 Z M42.8139446,76.2541312 C43.5384363,76.2541312 44.1020801,76.7614099 44.1020801,77.4986549 C44.1020801,78.2372527 43.5384363,78.7445314 42.8139446,78.7445314 C42.0908046,78.7445314 41.5258092,78.2372527 41.5258092,77.4986549 C41.5258092,76.7614099 42.0908046,76.2541312 42.8139446,76.2541312 L42.8139446,76.2541312 Z" id="Fill-27" fill="#000000" mask="url(#mask-4)"></path>
                <polygon id="Fill-28" fill="#000000" mask="url(#mask-4)" points="45.3483139 86.767651 47.1703564 86.767651 47.1703564 76.6315466 45.3483139 76.6315466"></polygon>
                <path d="M50.1819981,83.1758474 C50.1819981,84.5664673 51.0497661,85.3483529 52.1500203,85.3483529 C53.2786594,85.3483529 54.1180425,84.5380597 54.1180425,83.1758474 C54.1180425,81.813635 53.2786594,81.0033419 52.1500203,81.0033419 C51.0497661,81.0033419 50.1819981,81.7852274 50.1819981,83.1758474 L50.1819981,83.1758474 Z M55.9400851,86.7673804 L54.1464275,86.7673804 L54.1464275,85.7528231 L53.9436779,85.7528231 C53.5679154,86.3615575 52.9312819,86.9702919 51.6580148,86.9702919 C49.8643572,86.9702919 48.3586039,85.3767605 48.3586039,83.1758474 C48.3586039,80.9749343 49.8643572,79.3814029 51.6580148,79.3814029 C52.9312819,79.3814029 53.5679154,79.9901373 53.9436779,80.5988717 L54.1180425,80.5988717 L54.1180425,76.6299233 L55.9400851,76.6299233 L55.9400851,86.7673804 Z" id="Fill-29" fill="#000000" mask="url(#mask-4)"></path>
                <path d="M62.3679213,82.4375202 C62.2381616,81.5257713 61.6582979,80.9467972 60.7188917,80.9467972 C59.6902757,80.9467972 59.1550169,81.5541789 59.0103889,82.4375202 L62.3679213,82.4375202 Z M60.7324084,79.3816734 C62.8166736,79.3816734 64.2197005,80.8439887 64.2197005,83.0016141 L64.2197005,83.7118042 L58.9968723,83.7118042 C59.0685105,84.6668409 59.7483973,85.4054386 60.7905299,85.4054386 C61.8042776,85.4054386 62.3395364,84.8413447 62.5841875,84.3340661 L64.0750725,85.2025272 C63.5830669,85.9560051 62.7436838,86.9705625 60.8202665,86.9705625 C58.6778797,86.9705625 57.1302249,85.3486234 57.1302249,83.11795 C57.1302249,80.9467972 58.6211098,79.3816734 60.7324084,79.3816734 L60.7324084,79.3816734 Z" id="Fill-30" fill="#000000" mask="url(#mask-4)"></path>
                <path d="M67.1456467,80.627144 L67.3483962,80.627144 C67.6227839,79.8303783 68.2310325,79.5557714 69.1434055,79.5557714 L69.8368089,79.5557714 L69.8368089,81.2061181 L68.7662913,81.2061181 C67.8404018,81.2061181 67.1753833,81.6985166 67.1753833,82.7117212 L67.1753833,86.7672452 L65.3519891,86.7672452 L65.3519891,79.5841791 L67.1456467,79.5841791 L67.1456467,80.627144 Z" id="Fill-31" fill="#000000" mask="url(#mask-4)"></path>
                <path d="M73.2676015,79.3814029 C74.7436181,79.3814029 75.7857507,80.0334251 76.7548936,81.0479824 L75.4383732,82.0895946 C74.8882461,81.4375724 74.1651061,80.8585984 73.2094799,80.8585984 C72.5295931,80.8585984 72.1538306,81.1480854 72.1538306,81.582316 C72.1538306,82.1044748 72.6890894,82.2343382 73.4406144,82.3222665 L73.6879688,82.3506741 C75.9871486,82.6252809 76.8414,83.2191352 76.8414,84.5380597 C76.8414,85.9408544 75.5248797,86.9702919 73.614979,86.9702919 C71.6320885,86.9702919 70.533186,85.9557346 69.8681675,84.9425299 L71.3144475,84.0294283 C71.7631999,84.9709375 72.7323427,85.4646888 73.6582322,85.4646888 C74.3962406,85.4646888 75.0761274,85.1454414 75.0761274,84.5799948 C75.0761274,84.0443085 74.338119,83.9428528 73.5568575,83.8562772 L73.3122064,83.8278696 C71.2995792,83.5965505 70.388558,82.9445283 70.388558,81.6120763 C70.388558,80.2796243 71.6037036,79.3814029 73.2676015,79.3814029" id="Fill-32" fill="#000000" mask="url(#mask-4)"></path>
            </g>
            <g id="TM-Copy-2" transform="translate(169.337497, 0.264423)" fill="#000000" fill-rule="nonzero">
                <polygon id="Path" points="3.91906161 0.803185096 2.44528296 0.803185096 2.44528296 4.8125 1.45395203 4.8125 1.45395203 0.803185096 0 0.803185096 0 0 3.91906161 0"></polygon>
                <polygon id="Path" points="5.77945933 0 7.01531856 3.49038462 8.24456891 0 9.54651687 0 9.54651687 4.8125 8.5518815 4.8125 8.5518815 3.49699519 8.65101459 1.22626202 7.35237107 4.8125 6.67165717 4.8125 5.37631808 1.22956731 5.47545118 3.49699519 5.47545118 4.8125 4.48412024 4.8125 4.48412024 0"></polygon>
            </g>
        </g>
    </g>
</svg>