<?xml version="1.0" encoding="utf-8"?>
<!-- Generator: Adobe Illustrator 26.5.0, SVG Export Plug-In . SVG Version: 6.00 Build 0)  -->
<svg version="1.1" id="Layer_1" xmlns="http://www.w3.org/2000/svg" xmlns:xlink="http://www.w3.org/1999/xlink" x="0px" y="0px"
	 width="200.2425385px" height="100px" viewBox="0 0 200.2425385 100" style="enable-background:new 0 0 200.2425385 100;"
	 xml:space="preserve">
<style type="text/css">
	.st0{fill:#2E4985;}
</style>
<g>
	<path class="st0" d="M108.1495361,43.3764572c-6.499939,0-12.4826202,2.2344933-17.233551,5.9741898l0.0063705-42.9895668
		H80.2035828l-0.0042343,63.1996269h11.0516052c0.8819275-8.552124,8.1238785-15.2449951,16.8985825-15.2449951
		c9.3683395,0,16.987648,7.629921,16.987648,17.0067291c0,8.7832031-6.6865311,16.031517-15.2322693,16.9134369v10.973175
		c14.5793076-0.9073715,26.1609116-13.067749,26.1609116-27.8866119
		C136.0615997,55.914196,123.540802,43.3764572,108.1495361,43.3764572z M11.3562374,73.1074753v10.6933289H9.3613205V73.1074753
		H11.3562374z M14.9517727,76.2238922v1.2232437h0.2120142c0.3010378-0.7017212,0.9964075-1.346199,2.3722982-1.3440781
		c1.6599789,0,2.9150143,1.2062836,2.9150143,3.1778946v4.5219803h-1.9058933v-4.3375473
		c0-1.0557632-0.6042099-1.68116-1.689642-1.68116c-1.223237,0-1.874095,0.7631989-1.874095,2.1094055v3.9093018H13.079813
		v-7.5790405C13.0776787,76.2238922,14.9517727,76.2238922,14.9517727,76.2238922z M23.2007141,76.2238922v-1.5582047
		c0-0.8861618,0.6360092-1.5582123,1.5136967-1.5582123h1.9631195v1.6493683h-1.1469269
		c-0.2734776,0-0.4218922,0.1526413-0.4218922,0.4579239v1.0091248h1.9631176v1.6493683h-1.9631176v5.9275513H23.202816v-5.9296722
		h-1.9016552v-1.6472473h1.9016552H23.2007141L23.2007141,76.2238922z M31.5832233,76.0140152
		c2.2069302,0,3.9283733,1.617569,3.9283733,4.0004578c0,2.3850174-1.7214432,4.0025864-3.9262695,4.0025864
		c-2.2048302,0-3.9241352-1.617569-3.9241352-4.0025864C27.6612244,77.6294556,29.3805618,76.0118942,31.5832233,76.0140152
		L31.5832233,76.0140152z M31.5832233,82.3062057c1.2084217,0,2.0246143-0.9158478,2.0246143-2.2917404
		c0-1.373764-0.8140907-2.2896118-2.0246143-2.2896118c-1.2062855,0-2.0224781,0.9158401-2.0224781,2.2896118
		C29.5628796,81.390358,30.3769379,82.3062057,31.5832233,82.3062057L31.5832233,82.3062057z M38.6280441,77.3263016h0.2120171
		c0.28619-0.8395233,0.9221992-1.1278534,1.8740921-1.1278534h0.7229309v1.7405319H40.317688
		c-0.9646072,0-1.659977,0.5194016-1.659977,1.5878906v4.278183h-1.9016571v-7.5769196h1.8719597
		C38.6280441,76.2260132,38.6280441,77.3263016,38.6280441,77.3263016z M44.2778587,76.2260132v1.1320877h0.2120132
		c0.3158875-0.7335281,0.9370499-1.2529297,1.9801025-1.2529297c0.966713,0,1.6769295,0.5194016,1.9949188,1.282608h0.2120132
		c0.3328362-0.7017288,0.9370461-1.282608,2.130619-1.282608c1.3716545,0,2.4740677,1.0557709,2.4740677,2.6288223v5.0710602
		h-1.903759v-4.9184265c0-0.7017288-0.4982033-1.1024017-1.2232361-1.1024017c-0.7843933,0-1.3589401,0.4600372-1.3589401,1.4076843
		v4.6131439h-1.903759v-4.9184265c0-0.7017288-0.4982033-1.1024017-1.2232361-1.1024017
		c-0.7822914,0-1.3568039,0.4600372-1.3568039,1.4076843v4.6131439h-1.903759v-7.5769196
		C42.4080009,76.2260132,44.2778587,76.2260132,44.2778587,76.2260132z M58.3738098,76.0140152
		c2.0415649,0,3.3708115,1.1744843,3.3687057,2.9489288v4.844223h-1.8740921v-1.0706024h-0.2120132
		c-0.2395782,0.5024414-0.7695808,1.2826004-2.3553162,1.2826004c-1.6917763,0-2.811142-0.9158401-2.8090096-2.3701706
		c0-1.2062836,1.0409203-2.0479279,2.4761734-2.1984482l2.8705025-0.3201218v-0.1844482
		c0-0.7165604-0.542717-1.2826004-1.568821-1.2826004c-0.9964066,0-1.6154327,0.5194016-2.0839729,1.3143997l-1.5412598-1.0091248
		C55.5351067,76.8386993,56.5484657,76.0140152,58.3738098,76.0140152z M57.7695999,82.4270401
		c1.3292465,0,2.0691261-0.7907639,2.0691261-1.8316879v-0.1208344l-2.2959557,0.2734833
		c-0.7080803,0.093277-1.057869,0.3519211-1.057869,0.7950058C56.4848671,82.0624008,56.9258461,82.4291611,57.7695999,82.4270401
		L57.7695999,82.4270401L57.7695999,82.4270401z M64.3119507,76.2260132v-2.3532104h1.9037552v2.3553314h2.0542755v1.6493683
		h-2.0542755v3.8202591c0,0.3052826,0.1526566,0.4579239,0.4218979,0.4579239h1.2084198v1.6493683h-2.0521774
		c-0.8458862,0-1.4818954-0.6126862-1.4818954-1.4670486v-4.4605026h-1.9016571v-1.6514893H64.3119507z M70.4960327,72.71315
		c0.752594,0,1.3419571,0.5363617,1.3419571,1.3144073c0,0.7801666-0.5893631,1.3144073-1.3440933,1.3144073
		c-0.752594,0-1.3419571-0.5363617-1.3419571-1.3144073C69.1519394,73.2473984,69.7391739,72.71315,70.4960327,72.71315
		L70.4960327,72.71315z M71.4457932,83.8050537H69.542038v-7.5790405h1.9058914v7.5790405H71.4457932z M76.6122513,76.0161362
		c2.2047958,0,3.9241333,1.617569,3.9241333,4.0025787s-1.7214355,4.0025787-3.9241333,4.0025787
		c-2.2069321,0-3.9283676-1.6196899-3.9283676-4.0025787C72.6838837,77.6337051,74.4074554,76.0161362,76.6122513,76.0161362z
		 M76.6122513,82.3104401c1.2062912,0,2.0246124-0.9158401,2.0246124-2.2917328c0-1.375885-0.8140869-2.2917328-2.0246124-2.2917328
		c-1.2062836,0-2.0246124,0.9158401-2.0246124,2.2917328C74.5876389,81.3924789,75.403862,82.3104401,76.6122513,82.3104401z"/>
	<path class="st0" d="M83.6549377,76.2281342v1.2232437h0.2120132c0.3010406-0.7017288,0.9964066-1.3440857,2.370163-1.3440857
		c1.6620865,0,2.9171524,1.2062836,2.9171524,3.1778946v4.5219803h-1.9037552v-4.3396606
		c0-1.0557632-0.6042175-1.6790466-1.6917801-1.6790466c-1.2232361,0-1.8719635,0.7632065-1.8719635,2.1094055v3.9093018h-1.9037552
		v-7.5790329C81.7808456,76.2281342,83.6549377,76.2281342,83.6549377,76.2281342z M39.7007637,87.2097855
		c1.8274498,0,3.1248932,1.0388107,3.1248932,2.872612c0,1.282608-0.752594,2.0776062-1.7829361,2.3680573v0.1844406
		c1.0282059,0.2904434,1.7829361,1.0854492,1.7829361,2.3850098c0,1.7723312-1.3143959,2.8874588-3.1270294,2.8874588H34.881958
		V87.214035C34.8798561,87.2097855,39.7007637,87.2097855,39.7007637,87.2097855z M36.8747749,91.6236496h2.6288223
		c0.8437538,0,1.4183006-0.4282455,1.4183006-1.2974472c0-0.8713226-0.5724106-1.282608-1.4183006-1.2847214h-2.6288223V91.6236496z
		 M36.8747749,96.069313h2.6266899c0.8458862,0,1.4204025-0.4282455,1.4204025-1.2974472
		c0-0.8713226-0.5745163-1.3144073-1.4183006-1.3144073h-2.6288261v2.6118546H36.8747749z M49.5354767,97.9052429v-1.2232437
		h-0.2120171c-0.3031731,0.7038422-0.9985085,1.3440781-2.3744011,1.3440781c-1.659977,0-2.9150124-1.2062836-2.9150124-3.1778946
		v-4.5219803h1.903759v4.3375473c0,1.0557632,0.6042099,1.6811676,1.6917763,1.6811676
		c1.2232361,0,1.8719597-0.7632065,1.8719597-2.1094131v-3.9093018h1.903759v7.5790405
		C51.4074669,97.9052429,49.5354767,97.9052429,49.5354767,97.9052429z M54.0532417,86.8133392
		c0.7547302,0,1.3461952,0.5363617,1.3440933,1.3144073c0,0.7780457-0.5893631,1.3122864-1.3440933,1.3122864
		c-0.752594,0-1.3440933-0.5342407-1.3440933-1.3144073C52.7091484,87.34758,53.3006172,86.8133392,54.0532417,86.8133392z
		 M55.0030022,97.9052429h-1.8995209v-7.5790405h1.9016571L55.0030022,97.9052429L55.0030022,97.9052429z M58.6006393,97.9052429
		h-1.9016533V87.2119141h1.9016533V97.9052429z M67.7548599,97.9052429h-1.8719559v-1.07061h-0.2120132
		c-0.3921967,0.6423645-1.0600052,1.282608-2.3871498,1.282608c-1.8740921,0-3.4428787-1.6790466-3.4428787-4.0025787
		c0-2.3214188,1.5688171-4.0025864,3.4428787-4.0025864c1.3292427,0,1.9949226,0.6423721,2.3850136,1.282608h0.1844559v-4.1827774
		h1.9016495v10.6933289V97.9052429z M61.7446213,94.1167755c0,1.4670486,0.9073486,2.2917328,2.0521736,2.2917328
		c1.1765862,0,2.0521736-0.8543625,2.0521736-2.2917328c0-1.4352417-0.8755493-2.2917328-2.0521736-2.2917328
		C62.649868,91.8250504,61.7446213,92.6497345,61.7446213,94.1167755z M72.7580872,90.1120758
		c2.1751328,0,3.6421814,1.5454941,3.6421814,3.8202591v0.7483597H70.945488
		c0.0763092,1.0091324,0.7843933,1.7871704,1.8740921,1.7871704c1.0578766,0,1.6154404-0.5957184,1.8719635-1.1278534
		l1.5582123,0.9158478c-0.5130539,0.7949982-1.3907394,1.8656082-3.3962708,1.8656082
		c-2.2365952,0-3.8520584-1.7108459-3.8520584-4.0640564C68.9971848,91.7656937,70.555397,90.1120758,72.7580872,90.1120758z
		 M74.4668198,93.3366165c-0.1378098-0.9624863-0.7420197-1.5730515-1.7235794-1.5730515
		c-1.0727158,0-1.6302795,0.6402359-1.7807999,1.5730515H74.4668198L74.4668198,93.3366165z M79.4530563,91.4264908h0.2120132
		c0.2861938-0.8395233,0.9200974-1.1278458,1.8740997-1.1278458h0.7229309v1.7405243h-1.1172333
		c-0.966713,0-1.6599808,0.5194016-1.6599808,1.5878906v4.278183H77.581131v-7.5769196h1.8740921v1.0981674H79.4530563z
		 M85.8427887,90.1163254c1.5412521,0,2.6288223,0.686882,3.6400452,1.7574844l-1.3737564,1.0981674
		c-0.5745163-0.6847687-1.3292465-1.2974472-2.3256531-1.2974472c-0.7102203,0-1.1045151,0.3052902-1.1045151,0.7632065
		c0,0.5512009,0.5597,0.6868896,1.3440933,0.7801666l0.2586288,0.0296783
		c2.4019623,0.2883224,3.2923584,0.9158401,3.2923584,2.3086929c0,1.4818878-1.3737564,2.5652084-3.3687057,2.5652084
		c-2.0691223,0-3.2181854-1.0706024-3.9114227-2.1390839l1.5115662-0.9624863
		c0.4685059,0.9921646,1.4797592,1.5136948,2.4486084,1.5136948c0.7674408,0,1.4776611-0.3370895,1.4776611-0.9328079
		c0-0.5660324-0.7674408-0.6720428-1.5836334-0.7631989l-0.2586288-0.029686
		c-2.0988235-0.2438049-3.0506897-0.9328003-3.0506897-2.3383713S84.1064987,90.1163254,85.8427887,90.1163254z"/>
	<polygon class="st0" points="57.2926178,49.0602036 57.2989578,28.8671055 46.578083,28.8671055 46.5738449,69.270256 
		57.6254539,69.270256 	"/>
	<polygon class="st0" points="170.5223389,49.0602036 170.528717,43.3552551 159.8099365,43.3552551 159.8057098,69.270256 
		170.8551788,69.270256 	"/>
	<circle class="st0" cx="108.0074997" cy="71.0743866" r="7.1550369"/>
	<circle class="st0" cx="51.7254562" cy="13.9019527" r="7.1550341"/>
	<circle class="st0" cx="108.340332" cy="13.9019527" r="7.155036"/>
	<circle class="st0" cx="164.8449707" cy="13.9019527" r="7.1550303"/>
</g>
<g>
	<path class="st0" d="M183.4549103,17.6980667v-4.2116928h-1.5064087v-1.1970215h4.250351v1.1970215h-1.5082397v4.2116928
		H183.4549103z"/>
	<path class="st0" d="M186.8949738,17.6980667v-5.4087143h1.8931427l1.0810089,3.360878h0.1546936l1.0810089-3.360878h1.8931427
		v5.4087143h-1.2357025v-3.3222046h-0.1546936l-1.0810089,3.3222046h-1.1601868l-1.0810089-3.3222046h-0.1546936v3.3222046
		H186.8949738z"/>
</g>
<g id="Layer_2_00000173141876627017283390000003156164970050657456_">
</g>
</svg>
