<svg id="SvgjsSvg1001" width="288" height="288" xmlns="http://www.w3.org/2000/svg" version="1.1" xmlns:xlink="http://www.w3.org/1999/xlink" xmlns:svgjs="http://svgjs.com/svgjs"><defs id="SvgjsDefs1002"></defs><g id="SvgjsG1008" transform="matrix(1,0,0,1,0,0)"><svg xmlns="http://www.w3.org/2000/svg" width="288" height="288" fill="currentColor" viewBox="0 0 24 24"><path fill-rule="evenodd" d="M20.846 22H3.154A1.14 1.14 0 0 1 2 20.872v-5.639a1.14 1.14 0 0 1 1.154-1.127c.637 0 1.154.505 1.154 1.127v4.511h15.384v-4.51a1.14 1.14 0 0 1 1.154-1.128c.637 0 1.154.505 1.154 1.127v5.639c0 .623-.517 1.128-1.154 1.128M16.319 9.897l-3.461 3.76a1.165 1.165 0 0 1-.858.372c-.34 0-.646-.144-.858-.373L7.68 9.896a1.112 1.112 0 0 1-.295-.753c0-.623.516-1.128 1.153-1.128.34 0 .647.143.858.373l1.45 1.575V3.128A1.14 1.14 0 0 1 12 2c.637 0 1.154.505 1.154 1.128v6.835l1.45-1.575c.211-.23.517-.373.857-.373.638 0 1.154.505 1.154 1.128 0 .29-.112.554-.296.754" fill="#1774e5" class="color000 svgShape"></path></svg></g></svg>