<svg id="SvgjsSvg1066" width="288" height="288" xmlns="http://www.w3.org/2000/svg" version="1.1" xmlns:xlink="http://www.w3.org/1999/xlink" xmlns:svgjs="http://svgjs.com/svgjs"><defs id="SvgjsDefs1067"></defs><g id="SvgjsG1068"><svg xmlns="http://www.w3.org/2000/svg" xmlns:xlink="http://www.w3.org/1999/xlink" fill="none" stroke-linecap="square" stroke-miterlimit="10" viewBox="0 0 100 100" width="288" height="288"><clipPath id="a"><path d="m0 0l100.0 0l0 100.0l-100.0 0l0 -100.0z" fill="#ffffff" class="color000 svgShape"></path></clipPath><g clip-path="url(#a)" fill="#ffffff" class="color000 svgShape"><path fill="none" d="m0 0l100.0 0l0 100.0l-100.0 0z"></path><g filter="url(#b)" fill="#ffffff" class="color000 svgShape"><use transform="translate(0 2)" xlink:href="#c"></use></g><defs><filter id="b" filterUnits="userSpaceOnUse"><feGaussianBlur in="SourceAlpha" result="blur" stdDeviation="2"></feGaussianBlur><feComponentTransfer color-interpolation-filters="sRGB" in="blur"><feFuncR slope="0" type="linear"></feFuncR><feFuncG slope="0" type="linear"></feFuncG><feFuncB slope="0" type="linear"></feFuncB><feFuncA slope=".5" type="linear"></feFuncA></feComponentTransfer></filter></defs><g id="c" fill="#ffffff" class="color000 svgShape"><path fill="#ffffff" fill-rule="evenodd" d="m11.480315 35.994892l0 0c0 -3.8675232 3.1352444 -7.0027657 7.0027647 -7.0027657l63.033844 0c1.8572464 0 3.6384277 0.73778915 4.9516983 2.0510616c1.3132782 1.3132725 2.0510635 3.0944538 2.0510635 4.951704l0 28.01022c0 3.8675156 -3.1352463 7.002762 -7.002762 7.002762l-63.033844 0c-3.8675203 0 -7.0027647 -3.1352463 -7.0027647 -7.002762z" class="color000 svgShape"></path><path fill-rule="evenodd" stroke="#6b6b6b" stroke-linecap="butt" stroke-linejoin="round" stroke-width="2" d="m11.480315 35.994892l0 0c0 -3.8675232 3.1352444 -7.0027657 7.0027647 -7.0027657l63.033844 0c1.8572464 0 3.6384277 0.73778915 4.9516983 2.0510616c1.3132782 1.3132725 2.0510635 3.0944538 2.0510635 4.951704l0 28.01022c0 3.8675156 -3.1352463 7.002762 -7.002762 7.002762l-63.033844 0c-3.8675203 0 -7.0027647 -3.1352463 -7.0027647 -7.002762z" fill="#ffffff" class="color000 svgShape colorStrokefff svgStroke"></path></g><g filter="url(#d)" fill="#ffffff" class="color000 svgShape"><use transform="translate(0 2)" xlink:href="#e"></use></g><defs><filter id="d" filterUnits="userSpaceOnUse"><feGaussianBlur in="SourceAlpha" result="blur" stdDeviation="2"></feGaussianBlur><feComponentTransfer color-interpolation-filters="sRGB" in="blur"><feFuncR slope="0" type="linear"></feFuncR><feFuncG slope="0" type="linear"></feFuncG><feFuncB slope="0" type="linear"></feFuncB><feFuncA slope=".5" type="linear"></feFuncA></feComponentTransfer></filter></defs><g id="e" fill="#ffffff" class="color000 svgShape"><path fill="#ffffff" fill-opacity="0" fill-rule="evenodd" d="m17.889763 28.188976l64.220474 0l0 43.622044l-64.220474 0z" class="color000 svgShape"></path><path fill="#6b6b6b" d="m41.725586 46.435852q0 0.984375 -0.34375 1.921875q-0.34375 0.921875 -0.96875 1.5625q-0.875 0.859375 -1.953125 1.296875q-1.0625 0.4375 -2.65625 0.4375l-2.328125 0l0 4.734375l-3.75 0l0 -14.546875l6.171875 0q1.390625 0 2.328125 0.25q0.953125 0.234375 1.6875 0.71875q0.890625 0.5625 1.34375 1.46875q0.46875 0.890625 0.46875 2.15625zm-3.875 0.09375q0 -0.625 -0.34375 -1.0625q-0.328125 -0.453125 -0.765625 -0.625q-0.578125 -0.234375 -1.140625 -0.25q-0.5625 -0.03125 -1.484375 -0.03125l-0.640625 0l0 4.359375l1.078125 0q0.953125 0 1.5625 -0.109375q0.625 -0.125 1.046875 -0.484375q0.359375 -0.3125 0.515625 -0.734375q0.171875 -0.4375 0.171875 -1.0625zm20.267578 2.609375q0 2.03125 -0.9375 3.640625q-0.921875 1.59375 -2.328125 2.453125q-1.0625 0.640625 -2.34375 0.90625q-1.265625 0.25 -3.0 0.25l-5.125 0l0 -14.546875l5.265625 0q1.78125 0 3.0625 0.296875q1.296875 0.296875 2.171875 0.84375q1.515625 0.921875 2.375 2.484375q0.859375 1.5625 0.859375 3.671875zm-3.875 -0.03125q0 -1.4375 -0.53125 -2.453125q-0.515625 -1.03125 -1.640625 -1.609375q-0.578125 -0.28125 -1.1875 -0.375q-0.59375 -0.109375 -1.8125 -0.109375l-0.9375 0l0 9.109375l0.9375 0q1.34375 0 1.96875 -0.125q0.625 -0.125 1.21875 -0.453125q1.03125 -0.578125 1.5 -1.5625q0.484375 -0.984375 0.484375 -2.421875zm17.164062 -4.453125l-6.6875 0l0 2.703125l6.1875 0l0 2.8125l-6.1875 0l0 6.21875l-3.734375 0l0 -14.546875l10.421875 0l0 2.8125z" class="colorfff svgShape"></path></g></g></svg></g></svg>