<svg id="SvgjsSvg1059" width="288" height="288" xmlns="http://www.w3.org/2000/svg" version="1.1" xmlns:xlink="http://www.w3.org/1999/xlink" xmlns:svgjs="http://svgjs.com/svgjs"><defs id="SvgjsDefs1060"></defs><g id="SvgjsG1061"><svg xmlns="http://www.w3.org/2000/svg" width="288" height="288" fill="#FFF" viewBox="0 0 24 24"><path fill="none" d="M0 0h24v24H0V0z"></path><circle cx="15.5" cy="9.5" r="1.5" fill="#db0000" class="color000 svgShape"></circle><circle cx="8.5" cy="9.5" r="1.5" fill="#db0000" class="color000 svgShape"></circle><path d="M12 14c-2.33 0-4.32 1.45-5.12 3.5h1.67c.69-1.19 1.97-2 3.45-2s2.75.81 3.45 2h1.67c-.8-2.05-2.79-3.5-5.12-3.5zm-.01-12C6.47 2 2 6.48 2 12s4.47 10 9.99 10C17.52 22 22 17.52 22 12S17.52 2 11.99 2zM12 20c-4.42 0-8-3.58-8-8s3.58-8 8-8 8 3.58 8 8-3.58 8-8 8z" fill="#db0000" class="color000 svgShape"></path></svg></g></svg>