<?xml version="1.0" encoding="utf-8"?>
<!-- Generator: Adobe Illustrator 27.4.0, SVG Export Plug-In . SVG Version: 6.00 Build 0)  -->
<svg version="1.1" id="Layer_1" xmlns="http://www.w3.org/2000/svg" xmlns:xlink="http://www.w3.org/1999/xlink" x="0px" y="0px"
	 width="1920px" height="800px" viewBox="0 0 1920 800" style="enable-background:new 0 0 1920 800;" xml:space="preserve">
<style type="text/css">
	.st0{fill:#333C66;}
	.st1{fill:#E94165;}
</style>
<g>
	<g>
		<path class="st0" d="M1488.3178711,525.4243164h33.0814209c1.5179443,0,2.7486572-1.2032471,2.7486572-2.687561v-170.68927
			c0-1.484314-1.2307129-2.687561-2.7486572-2.687561h-32.1651611c-1.5180664,0-2.7486572,1.2032471-2.7486572,2.687561v171.585144
			C1486.4854736,524.6221313,1487.3059082,525.4243164,1488.3178711,525.4243164z"/>
		<path class="st0" d="M1587.6903076,371.3866882v-19.3392029c0.0001221-1.4842834-1.2305908-2.687561-2.7486572-2.687561
			h-32.1650391c-1.5180664,0-2.7486572,1.2032471-2.7486572,2.687561v170.68927c0,1.484314,1.2305908,2.687561,2.7486572,2.687561
			h32.1650391c1.5180664,0,2.7487793-1.2032471,2.7487793-2.687561v-89.8092346
			c0-18.089386,3.7987061-30.7932129,11.3979492-38.1174316c7.5974121-7.3182983,18.7731934-10.9825439,33.5324707-10.9825439
			h6.8312988c1.5180664,0,2.7486572-1.2032776,2.7486572-2.687561l-0.0002441-32.6780701
			c0-1.5128784-1.2796631-2.7553711-2.8260498-2.7071533c-11.362915,0.3542786-21.2709961,2.8729553-29.7141113,7.5470886
			c-8.2445068,4.5646973-15.0111084,10.7466431-20.2954102,18.550354
			C1588.8590088,372.5993958,1587.6903076,372.2828064,1587.6903076,371.3866882z"/>
		<path class="st0" d="M1126.0155029,381.766571c34.3795166,0,61.6263428,30.4331055,55.0410156,65.1939087
			c-4.1341553,21.8228149-22.0738525,39.3636169-44.3929443,43.4058838
			c-35.5513916,6.4387817-66.6766357-20.2020874-66.6766357-53.8171387
			C1069.9869385,406.3420105,1095.1213379,381.766571,1126.0155029,381.766571 M1126.0155029,345.2447815
			c-55.0744629,0-99.0134277,46.6177673-92.7926025,101.6986084c4.7285156,41.866394,39.3410645,75.7102966,82.1594238,80.3347473
			c56.3341064,6.0841675,104.0141602-36.877655,104.0141602-90.7289124
			C1219.3964844,386.1228333,1177.5882568,345.2447815,1126.0155029,345.2447815L1126.0155029,345.2447815z"/>
		<path class="st0" d="M1467.8270264,298.7769775l0.0001221-30.0829163c0-1.4111938-1.1789551-2.6415405-2.6208496-2.7047119
			c-24.7764893-1.0856628-49.7008057,4.2568054-62.6417236,16.0284424
			c-13.4008789,12.1900635-20.0970459,30.0195923-20.0970459,53.4809265v13.8612061h-0.09729h-29.3974609
			c-1.5180664,0-2.7486572,1.2032471-2.7486572,2.687561v29.0924988c0,1.484314,1.2305908,2.687561,2.7486572,2.687561h29.3974609
			v138.9092102c0,1.484314,1.2305908,2.687561,2.7486572,2.687561h32.49646c1.5180664,0,2.7486572-1.2032471,2.7486572-2.687561
			V383.8275452h44.5771484c1.5180664,0,2.7486572-1.2032471,2.7486572-2.687561v-29.0924988
			c0-1.484314-1.2305908-2.687561-2.7486572-2.687561h-44.5771484h-0.1503906v-13.8612061
			c0-24.1481323,18.9130859-35.4981384,44.6591797-34.0492249
			C1466.4675293,301.5392456,1467.8270264,300.3388367,1467.8270264,298.7769775z"/>
		<ellipse class="st0" cx="1505.4293213" cy="288.8248596" rx="23.0270119" ry="22.5149727"/>
		<g>
			<path class="st0" d="M1007.5644531,385.3084412c-8.460022-13.6124573-19.6176758-23.9496155-33.4684448-31.0097656
				c-13.8560791-7.0524902-28.7012939-10.58255-44.5331421-10.58255c-6.649231,0-13.1399536,0.7090759-19.4899902,2.0422974
				c-8.4296875,1.7696838-16.6048584,4.6722107-24.5042725,8.7865295c-4.4509277,2.320343-8.6140747,4.9893188-12.505127,7.9878235
				c-0.5999756,0.4623413-1.4639893,0.0605164-1.4639893-0.687439l0.0001221-12.34198
				c0.000061-1.4876709-1.2305908-2.693634-2.7486572-2.693634h-32.1654663c-1.5180664,0-2.7487183,1.2059631-2.7487183,2.6936035
				v242.8089905c0,1.484314,1.2278442,2.687561,2.7424927,2.687561h32.2250366c1.4886475,0,2.6953735-1.1825562,2.6953735-2.6413574
				v-86.0299683v-6.5884705c0-0.8303833,1.0293579-1.1955566,1.5878296-0.5700073
				c6.5844116,7.3753662,14.8664551,13.5968323,24.8414307,18.6717224
				c10.8567505,5.5253906,23.2802124,8.2706909,37.2644043,8.2356567c0.602356-0.0235596,1.2197876-0.0477905,1.8221436-0.0714111
				c13.0198364-0.996582,25.3532104-4.5591431,36.9805298-10.7542725
				c13.850769-7.3836365,25.0084229-18.1275635,33.4684448-32.2401733c8.451355-14.105011,12.68573-30.5180664,12.68573-49.221405
				S1016.0158081,398.9285278,1007.5644531,385.3084412z M929.8338013,488.728302
				c-29.9614868,0-54.2498779-24.5270386-54.2498779-54.7827148s24.2883911-54.7827148,54.2498779-54.7827148
				s54.249939,24.5270386,54.249939,54.7827148S959.7952881,488.728302,929.8338013,488.728302z"/>
		</g>
		<path class="st0" d="M795.6590576,411.3227844c-9.8468018-11.3444519-24.2398071-20.3478394-44.0003052-27.5248413
			l-25.7798462-9.4512634c-25.7852783-9.3247375-38.878418-17.4533081-38.878418-36.0028992
			c0-19.0517578,20.3355103-29.0195923,40.4223022-29.0195923c11.6278687,0,22.0618286,2.8414612,31.569519,8.6369934
			c8.3044434,5.0620422,18.8257446,5.008728,26.8690796-0.4431458l14.0889893-9.5496521
			c3.1818237-2.1567688,3.4152222-4.0227966,2.3286743-5.2031555
			c-18.6247559-20.2331238-44.9421387-31.3295593-74.4988403-31.3295593c-23.2538452,0-44.1635132,6.6262207-58.8758545,18.6578369
			c-15.3860474,12.5820312-23.5180054,30.2355347-23.5180054,51.0524902c0,33.062439,19.0471802,55.2183838,59.9434204,69.7262878
			l27.9282227,9.8026123c25.1566772,9.0432739,36.374939,20.7949219,36.374939,38.1046448
			c0,18.3228149-17.0635376,31.1198425-41.4953003,31.1198425c-17.0282593,0-32.4927979-5.5496216-44.9468384-15.9073181
			c-8.5013428-7.0703735-20.6568604-7.9718323-29.8303833-1.760376l-11.9810791,8.1125488
			c-3.4896851,2.3628845-3.9846802,4.4963684-2.9447632,6.0877686
			c16.7272949,25.5987549,50.1495972,41.3557129,88.2718506,41.3557129c24.5257568,0,45.5806885-6.7539062,60.8874512-19.5313416
			c15.4754028-12.9178162,23.6547852-30.8744507,23.6547852-51.9284363
			C811.421936,438.3283997,806.3225098,423.6081543,795.6590576,411.3227844z"/>
		<path class="st0" d="M1333.1248779,383.8275757c1.5180664,0,2.7486572-1.2059937,2.7486572-2.693634v-29.0160522
			c0-1.484314-1.2277832-2.687561-2.7424316-2.687561h-44.7110596l0.0151367-45.3026733
			c0.0004883-1.459137-1.2064209-2.6422119-2.6953125-2.6422119h-32.6022949c-1.4881592,0-2.6947021,1.1819763-2.6951904,2.6403503
			l-0.0157471,45.3045349h-29.3978271c-1.5180664,0-2.7486572,1.2059631-2.7486572,2.6936035v29.0160828
			c0,1.4842834,1.2279053,2.687561,2.7425537,2.687561h29.4039307v91.9185181
			c0,17.5101013,4.5112305,30.157074,13.5449219,37.9400024c9.0283203,7.7819214,22.0219727,11.6737671,38.9844971,11.6737671
			h30.2175293c1.5180664,0,2.7486572-1.2059937,2.7486572-2.6936035V497.247406c0-1.4876404-1.2305908-2.693634-2.7486572-2.693634
			h-23.6107178c-7.7116699,0-13.1638184-1.4588318-16.3533936-4.378418
			c-3.1949463-2.9176941-4.7894287-7.7257385-4.7894287-14.4292603v-91.9185181H1333.1248779z"/>
		<g>
			<path class="st0" d="M1738.4709473,493.5217896c-14.6898193,0-27.1069336-3.5330505-37.2878418-10.5838928
				c-10.1806641-7.0678101-16.6938477-20.3577881-19.520874-33.5488281l138.9090576-0.0011597
				c1.3769531,0,2.5566406-1.0346375,2.734375-2.3727112c0.7154541-5.3856201,1.0849609-9.8054504,1.0849609-13.2481995
				c0-19.0519104-4.3319092-30.5774231-14.0273438-47.5741272c-2.9077148-5.0971985-6.7996826-9.6921387-11.0037842-14.1886902
				c-16.6938477-17.809082-38.0581055-26.7315674-64.0914307-26.7315674c-27.46521,0-49.9382324,8.747345-67.4552002,26.2070923
				c-17.5158691,17.4945068-26.2830811,39.1877136-26.2830811,65.0973816c0,26.3820496,8.8747559,48.2153015,26.6413574,65.4478455
				c17.7491455,17.2492981,41.0635986,25.8565979,69.9415283,25.8565979c30.380127,0,54.1242676-9.9375,71.3331299-29.7048645
				c0.958252-1.1006775,0.8272705-2.7798767-0.2677002-3.7503967l-8.4138184-7.457489
				c-8.1591797-7.2318726-20.3614502-8.3240051-29.4672852-2.2739258
				C1762.4384766,490.5805969,1751.4970703,493.5217896,1738.4709473,493.5217896z M1699.411377,390.758667
				c9.465332-7.6453552,21.3101807-11.4594421,35.4984131-11.4594421c12.5430908,0,23.4935303,3.586853,32.8513184,10.7600098
				c9.1611328,7.0327148,15.0653076,14.2640991,17.7491455,27.962616c0.0541992,0.2793274,0.1251221,0.5414734,0.1790771,0.8217468
				h-0.7695312h-103.6158447C1683.8988037,405.6525574,1689.946167,398.386261,1699.411377,390.758667z"/>
		</g>
	</g>
	<g>
		<path class="st0" d="M464.5553894,394.0693054l-0.2269897-2.7182617l-0.4184875-5.7802734l-0.7092896-5.5620422
			c-0.1962585-1.7973328-0.4823303-3.6409607-0.855896-5.5221863l-1.0308533-5.7086792
			c-0.2364502-0.9819641-0.4870605-2.0976562-0.735321-3.2145386c-0.5697937-2.5528259-1.1608887-5.191925-1.9198303-7.6773071
			c-1.711792-6.4143677-4.1021423-13.2059021-7.5493469-21.4563293c-2.5558777-6.002594-5.854126-12.4028625-10.3723755-20.1276855
			c-4.348053-6.9892273-8.6133118-13.0510864-13.0039062-18.4764709
			c-9.797821-12.0151367-20.8582458-22.4030762-32.87146-30.8693542c-2.1255493-1.6031494-4.2605591-2.9692993-6.520874-4.4152527
			c-0.9882812-0.6317749-1.976593-1.2640991-2.9554138-1.9111328c-0.9717407-0.5408325-2.0782471-1.1919556-3.1847839-1.8436584
			c-2.2177429-1.3039856-4.3101807-2.5364075-6.5232239-3.6204224c-5.8257446-3.1212616-12.3796997-5.9937897-20.709259-9.0810242
			c-6.3529968-2.2965088-13.453125-4.2967834-21.6834106-6.1081696l-5.5420227-1.0130463
			c-1.9056702-0.3830414-3.7356567-0.6710663-5.4829102-0.8646393l-5.6933289-0.7308807l-5.5916748-0.4076843l-2.85849-0.2364044
			l-2.7426453-0.0621796l-5.6342468-0.1384277l-5.6389465,0.1384277l-2.884491,0.069809l-2.695343,0.227005l-5.7430115,0.4229431
			l-5.5231018,0.7121124c-1.7874451,0.1988525-3.6174316,0.4868774-5.4829102,0.8617096l-5.6673279,1.038269
			c-8.1451721,1.7943726-15.245285,3.7946472-21.6172028,6.0981903c-8.3106537,3.0802002-14.864624,5.9527283-20.6099701,9.0335083
			c-2.2934113,1.1244965-4.3858643,2.3569183-6.6036224,3.6609039c-1.1065063,0.6517029-2.2130127,1.3028259-3.333725,1.9334106
			c-0.8298798,0.5572815-1.8181763,1.1896057-2.8064728,1.8213806c-2.2603149,1.4459534-4.3953094,2.8121033-6.457016,4.3683472
			c-12.0770721,8.5131836-23.1374664,18.901123-32.940033,30.9227295
			c-4.3858643,5.4189148-8.6511383,11.4807739-13.0346222,18.5263062
			c-4.4828033,7.6685181-7.7810669,14.0687866-10.3440094,20.0866394
			c-3.4401245,8.2351685-5.8304749,15.0267029-7.5186157,21.3583679c-0.7825928,2.5680847-1.3736725,5.2071838-1.9434814,7.7600098
			c-0.2482605,1.1168823-0.4988861,2.2325745-0.761322,3.3429871l-0.9953918,5.5368347
			c-0.3830261,1.9246216-0.6691132,3.7682495-0.860611,5.5227661l-0.7258606,5.7315674l-0.406662,5.6318665l-0.2340698,2.878418
			l-0.0614777,2.7645874l-0.1394958,5.7603149l0.1394958,5.6436157l0.0685577,2.8795776l0.2269897,2.7434692l0.4184875,5.7556458
			l0.7093048,5.5872803c0.196228,1.7937927,0.4775848,3.5887451,0.8582458,5.5256958l1.0284882,5.6781921
			c0.2293549,0.9561462,0.4705048,2.0372314,0.7116699,3.117157c0.6029053,2.7030029,1.1727142,5.2558289,1.9434967,7.7770081
			c1.7117767,6.413208,4.1021271,13.2047424,7.5493469,21.4557495c2.5558472,6.000824,5.8517456,12.4017029,10.3723755,20.1276855
			c4.3456573,6.9886475,8.6109314,13.0510864,13.003891,18.4770508
			c9.7836456,11.9987183,20.8464203,22.3954468,32.8738251,30.8939819c2.0853577,1.5574341,4.1872559,2.9018555,6.4144592,4.3249512
			c1.0237732,0.6534424,2.045166,1.3069458,3.0594635,1.9768066c0.971756,0.5408325,2.0806274,1.1954956,3.1871338,1.8495483
			c2.213028,1.3074951,4.3031158,2.5428467,6.5090485,3.6080933c5.8824768,3.1734619,12.434082,6.0436401,20.7140045,9.083374
			c4.5253601,1.6365967,8.8284607,2.9998169,13.0629883,4.1366577v-20.8070068v-0.3120728
			c-0.770752-12.6896973-7.1544952-24.6051636-17.5126801-32.5464172l-0.1725922-0.1243591
			c-1.8772888-1.423645-3.3739166-2.5481262-4.7192383-3.5611877c-1.3453064-1.0112915-2.5440216-1.9122925-3.787674-2.860199
			l-0.7944183-0.6036072c-0.2127991-0.1472473-0.4255829-0.2974243-0.6312866-0.4540405
			c-8.6416626-6.0547791-16.7773743-13.6875-24.1021118-22.6265564c-3.1209259-3.8468933-6.2418671-8.2826843-9.5519409-13.5678711
			c-3.1091156-5.396637-5.5680389-9.9350891-7.598999-14.7914734c-2.0049744-4.8370361-4.0572205-10.0711975-5.4805603-15.6150513
			c-0.5201569-1.5814514-0.9102631-3.3300781-1.2861938-5.0206299c-0.2127991-0.9584961-0.4255829-1.917572-0.6691132-2.8660889
			l-0.7376709-4.190033c-0.2837219-1.3485718-0.5012512-2.7458191-0.6501923-4.1923523l-0.5272522-3.9548035l-0.2955475-4.2504578
			l-0.1607666-2.0072937l-0.0520172-2.1991272l-0.11586-4.0809326l0.11586-4.255127l0.0449219-2.0454407l0.1702271-2.1750793
			l0.2766266-4.0457153l0.5532532-4.200592c0.1394958-1.3755493,0.3570251-2.7727966,0.6549225-4.2011719l0.6833038-3.9248657
			c0.286087-1.1356506,0.4965057-2.0947266,0.7116699-3.0532227c0.3735657-1.6911316,0.7636719-3.4391785,1.3263855-5.1661072
			c1.4020691-5.4564514,3.5370636-10.8876953,5.4356384-15.4619446c2.1917419-5.2177124,4.9272919-10.1585999,7.5564423-14.7222595
			c3.4164734-5.4341736,6.4475555-9.7397766,9.5874023-13.6294556c7.3318329-8.9525452,15.4699097-16.5858459,24.1943359-22.7016602
			c1.3476715-1.049408,2.8655853-2.0149231,4.3338318-2.9482117c0.8180695-0.5214844,1.6384888-1.0417786,2.4376373-1.5873108
			l0.1016693-0.0692139l0.1087646-0.0586548c0.8866272-0.4815979,1.7566986-0.9972229,2.6291504-1.5122375
			c1.4564362-0.8616943,2.9625244-1.7527466,4.5679016-2.5070801c5.1495514-2.7998047,10.7199402-4.9825134,14.9804993-6.5645447
			c4.4709473-1.6371765,9.3486023-3.0221252,15.8245239-4.4921265l4.090332-0.7261963
			c1.3523865-0.2868347,2.7449951-0.5068054,4.1730652-0.6558228l3.953186-0.5296631l4.2037964-0.2968445l1.9955139-0.1612854
			l2.1846313-0.0545654l4.0572205-0.1155701l4.2061768,0.1161499l2.0333252,0.0463562l2.1633911,0.1706848l4.0193787,0.2792358
			l4.1801453,0.5543213c1.3571472,0.1401978,2.7497559,0.3601685,4.1801758,0.6628418l3.8988037,0.6868896
			c6.5894165,1.4934692,11.4670715,2.878418,15.9285889,4.5126648c4.269989,1.5849609,9.8403931,3.7676697,15.1152344,6.6308289
			c1.480072,0.690979,2.9861755,1.5820312,4.4425964,2.4437256c0.8724365,0.5150146,1.7425232,1.0306396,2.6291504,1.5122375
			l0.1087646,0.0586548l0.1016541,0.0692139c0.7991638,0.5455322,1.6195984,1.0658264,2.4376526,1.5873108
			c1.4682617,0.9332886,2.9861755,1.8988037,4.4284058,3.0186157c8.6298523,6.0454102,16.7679443,13.6787109,24.0903015,22.6171875
			c3.149292,3.9037476,6.1803894,8.2093506,9.5495911,13.5637512c2.6764221,4.6434326,5.4119873,9.5843201,7.598999,14.7920532
			c1.9032898,4.5842285,4.0382996,10.0154724,5.4829102,15.6156616c0.5201416,1.5826111,0.9078979,3.3288879,1.283844,5.0177002
			c0.2127686,0.9602356,0.4255676,1.9210815,0.6714783,2.8713684l0.7376709,4.1900024
			c0.2837219,1.349762,0.5012207,2.7470093,0.650177,4.1923828l0.5272522,3.9805908l0.2955322,4.2234497l0.1607971,2.0090942
			l0.052002,2.1985474l0.1158447,4.1061401l-0.1158447,4.2304688l-0.0449219,2.0454407l-0.1702271,2.1744995l-0.2766418,4.0686035
			l-0.5532532,4.1794739c-0.1394958,1.3749695-0.3569946,2.7722168-0.6549072,4.1999817l-0.6832886,3.9242859
			c-0.2861023,1.1368103-0.4989014,2.0964966-0.7116699,3.0567322c-0.375946,1.6888123-0.7637024,3.4356689-1.3240356,5.1602478
			c-1.3831482,5.4001465-3.4353943,10.6343079-5.4379883,15.4648743c-2.0333557,4.862854-4.4922485,9.4013062-7.5564575,14.72229
			c-3.3549805,5.3608398-6.4759216,9.7966309-9.5897827,13.6347046
			c-7.3318176,8.947876-15.4675293,16.5805969-24.1919556,22.6958008c-0.1914978,0.1472473-0.427948,0.3120728-0.6809387,0.4821777
			l-0.6619873,0.5150452c-1.2436523,0.9479065-2.4423828,1.8489075-3.7876892,2.860199
			c-1.3453064,1.0130615-2.8419495,2.1375427-4.6813965,3.5330505l-0.2577209,0.1882935
			c-10.3109131,7.9054565-16.6946411,19.8209229-17.4701233,32.6543579l0.0047302,0.168335v20.8070068
			c4.2345276-1.1368408,8.5400085-2.5006714,13.0724487-4.1401978c8.2704773-3.0361938,14.822052-5.9063721,20.607605-9.0299683
			c2.302887-1.1151123,4.3929443-2.3504639,6.6059875-3.657959c1.1065063-0.6540527,2.2153931-1.3087158,3.3360901-1.93927
			c0.8653564-0.5801392,1.8867493-1.2336426,2.9104919-1.887085c2.2272339-1.4230957,4.3291321-2.7675171,6.3624573-4.2868042
			c12.0794373-8.5366821,23.1421814-18.9334106,32.9305725-30.9385986
			c4.3882141-5.4194946,8.6535034-11.4819336,13.0346375-18.5263062
			c4.4851379-7.6702576,7.7810364-14.0711365,10.3439941-20.0872192c3.4401245-8.2357483,5.8304749-15.0272827,7.5186157-21.3577881
			c0.7944031-2.6038818,1.3642273-5.1567078,1.9671326-7.8597107c0.2411499-1.0799255,0.4823303-2.1610107,0.7376709-3.2403564
			l0.9953918-5.5186462c0.3877563-1.9732971,0.6690979-3.7682495,0.8606262-5.5233459l0.7258606-5.7509155l0.4066467-5.6113281
			l0.2340698-2.8989563l0.0614929-2.7428894l0.1394958-5.7591553l-0.1394958-5.644165L464.5553894,394.0693054z"/>
		<ellipse class="st1" cx="299.7369995" cy="399.9488525" rx="63.8372726" ry="63.3514023"/>
		<path class="st0" d="M299.7369995,199.5977173c54.074585,0,104.895813,20.8809662,143.1018066,58.7961426
			c38.1186829,37.828949,59.1116638,88.1005554,59.1116638,141.5548706S480.957489,503.6746216,442.8388062,541.50354
			c-38.2059937,37.9152222-89.0272217,58.7962036-143.1018066,58.7962036s-104.895813-20.8809814-143.1018066-58.7962036
			c-38.1186676-37.8289185-59.1116486-88.1005249-59.1116486-141.5548096s20.992981-103.7259216,59.1116486-141.5548706
			C194.8411865,220.4786835,245.6624146,199.5977173,299.7369995,199.5977173 M299.7369995,154.8765106
			c-136.3872528,0-246.950943,109.722641-246.950943,245.0722198s110.5636902,245.0722046,246.950943,245.0722046
			s246.9509277-109.7226562,246.9509277-245.0722046S436.1242676,154.8765106,299.7369995,154.8765106L299.7369995,154.8765106z"/>
	</g>
</g>
<g>
	<polygon class="st0" points="1836.8388672,312.870697 1836.8388672,318.3733521 1829.513916,318.3733521 1829.513916,338.2888794 
		1823.5194092,338.2888794 1823.5194092,318.3733521 1816.121582,318.3733521 1816.121582,312.870697 	"/>
	<polygon class="st0" points="1866.3934326,312.870697 1866.3934326,338.2888794 1860.3986816,338.2888794 
		1860.3986816,322.1633301 1853.12854,332.7861938 1845.8583984,322.2726746 1845.8583984,338.2888794 1839.8635254,338.2888794 
		1839.8635254,312.870697 1845.8583984,312.870697 1845.8583984,312.8888245 1846.4775391,312.870697 1853.1650391,322.7464294 
		1859.7972412,312.870697 1860.3986816,312.8888245 1860.3986816,312.870697 	"/>
</g>
</svg>
