<?xml version="1.0" encoding="utf-8"?>
<!-- Generator: Adobe Illustrator 26.5.0, SVG Export Plug-In . SVG Version: 6.00 Build 0)  -->
<svg version="1.1" id="Layer_1" xmlns="http://www.w3.org/2000/svg" xmlns:xlink="http://www.w3.org/1999/xlink" x="0px" y="0px"
	 width="188.421051px" height="66.3157883px" viewBox="0 0 188.421051 66.3157883"
	 style="enable-background:new 0 0 188.421051 66.3157883;" xml:space="preserve">
<style type="text/css">
	.st0{fill:#3A8DDE;}
</style>
<g>
	<g>
		<g>
			<g>
				<path class="st0" d="M25.9481277,18.3228779v35.6240005h-5.4902V18.3228779H6.1424279V13.093379h34.1210976v5.2294989
					H25.9481277z"/>
				<path class="st0" d="M46.7987289,53.9468803V13.093379h5.4911995v40.8535004H46.7987289z"/>
				<path class="st0" d="M91.036026,42.378479c0,6.9277992-4.6405945,11.5684013-15.1641006,11.5684013H61.9481277V13.093379
					h13.5311966c9.8711014,0,14.25,4.4442987,14.25,10.8506002c0,4.1835995-2.4188995,7.2558002-6.9940948,8.9559994
					C88.161026,34.2720795,91.036026,37.8023796,91.036026,42.378479z M75.9364243,18.1919785h-8.431694V31.003479
					c0.0644989,0,7.5820999,0,7.5820999,0c5.8827972,0,9.0858994-2.6142006,9.0858994-6.6014996
					C84.1727295,20.4800777,81.2977295,18.1919785,75.9364243,18.1919785z M75.5448303,36.0366783h-8.0401001v12.8125h8.8896942
					c6.0791016,0,9.0869064-2.1581993,9.0869064-6.4062004C85.4813309,37.7359772,81.2977295,36.0366783,75.5448303,36.0366783z"/>
				<path class="st0" d="M127.2596283,20.5445786c-3.5947037-2.3526001-6.9287033-3.4638996-11.1766968-3.4638996
					c-8.8907013,0-14.8389053,6.1444988-14.8389053,16.2763996c0,10.1307983,6.0137024,16.6025009,14.9697037,16.6025009
					c4.3788986,0,8.6933975-1.7647018,11.5683975-3.9873009l0.9148941,5.5565987
					c-3.3328934,2.0918007-8.0398941,3.3985023-12.61409,3.3985023c-11.9629059,0-20.4610062-8.3008003-20.4610062-21.3096008
					c0-13.0078011,8.5634995-21.5059013,20.4610062-21.5059013c4.6405945,0,9.607399,1.3077002,12.941391,3.4004002
					L127.2596283,20.5445786z"/>
			</g>
			<g>
				<path class="st0" d="M162.684433,14.9947786c-0.6063995-0.3731003-1.2363129-0.7138996-1.8896027-1.0195999
					c-5.3399048,10.2382994-15.0440063,22.4169998-27.881897,29.3456993
					c0.7402954,1.6612015,1.6767883,3.1631012,2.7830963,4.4951019
					C146.7352295,40.2261772,156.9579315,27.5318794,162.684433,14.9947786z"/>
				<path class="st0" d="M160.309433,13.7564783c-2.6396027-1.1493998-5.6298981-1.7656994-8.8740082-1.7656994
					c-12.0088043,0-20.4931946,9.2685995-20.4931946,21.4736977c0,2.0586014,0.2187958,3.9990005,0.6307983,5.8105011
					C143.8592224,34.2671776,154.7743225,23.2280788,160.309433,13.7564783z"/>
				<path class="st0" d="M163.1454315,15.2818785c-6.3018036,15.495101-13.9795074,26.4618988-23.7881012,35.8934975
					c3.3134918,2.3008003,7.4375,3.5664024,12.0780945,3.5664024c12.0106049,0,20.4932098-9.3339996,20.4932098-21.5390015
					C171.9286346,25.1148777,168.5799255,18.8423786,163.1454315,15.2818785z"/>
			</g>
			<g>
				<path class="st0" d="M171.9286346,13.9282789v-0.0312004c0-2.8799,2.3338928-5.3057003,5.2753906-5.3057003
					c2.9707031,0,5.2752991,2.3955002,5.2752991,5.2764006v0.0292997c0,2.8809004-2.3338928,5.3065996-5.2752991,5.3065996
					C174.2333374,19.2036781,171.9286346,16.8081779,171.9286346,13.9282789z M181.8739319,13.8970785v-0.0292997
					c0-2.5781002-2.0019989-4.7002001-4.6699066-4.7002001c-2.6386871,0-4.6699982,2.1533003-4.6699982,4.7294998v0.0312004
					c0,2.5761995,2.0019989,4.6992998,4.6699982,4.6992998C179.8426361,18.6275787,181.8739319,16.4751778,181.8739319,13.8970785z
					 M175.1415253,11.1079788h2.425705c1.1835022,0,2.0625,0.5761995,2.0625,1.6973
					c0,0.8799-0.5155945,1.4257994-1.2440948,1.6386995l1.4257965,2.0311995h-1.2422028l-1.2733917-1.8495989h-1.1231079v1.8495989
					h-1.0312042V11.1079788z M177.4774323,13.775979c0.6972961,0,1.0917969-0.3633003,1.0917969-0.8789005
					c0-0.5761995-0.3945007-0.8788996-1.0917969-0.8788996h-1.3047028v1.7578001H177.4774323z"/>
			</g>
		</g>
	</g>
</g>
</svg>
