<svg id="SvgjsSvg1018" width="288" height="288" xmlns="http://www.w3.org/2000/svg" version="1.1" xmlns:xlink="http://www.w3.org/1999/xlink" xmlns:svgjs="http://svgjs.com/svgjs"><defs id="SvgjsDefs1019"></defs><g id="SvgjsG1020"><svg xmlns="http://www.w3.org/2000/svg" xmlns:xlink="http://www.w3.org/1999/xlink" fill="none" stroke-linecap="square" stroke-miterlimit="10" viewBox="0 0 100 100" width="288" height="288"><clipPath id="a"><path d="m0 0l100.0 0l0 100.0l-100.0 0l0 -100.0z" fill="#ffffff" class="color000 svgShape"></path></clipPath><g clip-path="url(#a)" fill="#ffffff" class="color000 svgShape"><path fill="none" d="m0 0l100.0 0l0 100.0l-100.0 0z"></path><g filter="url(#b)" fill="#ffffff" class="color000 svgShape"><use transform="translate(0 2)" xlink:href="#c"></use></g><defs><filter id="b" filterUnits="userSpaceOnUse"><feGaussianBlur in="SourceAlpha" result="blur" stdDeviation="2"></feGaussianBlur><feComponentTransfer color-interpolation-filters="sRGB" in="blur"><feFuncR slope="0" type="linear"></feFuncR><feFuncG slope="0" type="linear"></feFuncG><feFuncB slope="0" type="linear"></feFuncB><feFuncA slope=".5" type="linear"></feFuncA></feComponentTransfer></filter></defs><g id="c" fill="#ffffff" class="color000 svgShape"><path fill="#ffffff" fill-rule="evenodd" d="m11.480315 35.994892l0 0c0 -3.8675232 3.1352444 -7.0027657 7.0027647 -7.0027657l63.033844 0c1.8572464 0 3.6384277 0.73778915 4.9516983 2.0510616c1.3132782 1.3132725 2.0510635 3.0944538 2.0510635 4.951704l0 28.01022c0 3.8675156 -3.1352463 7.002762 -7.002762 7.002762l-63.033844 0c-3.8675203 0 -7.0027647 -3.1352463 -7.0027647 -7.002762z" class="color000 svgShape"></path><path fill-rule="evenodd" stroke="#6b6b6b" stroke-linecap="butt" stroke-linejoin="round" stroke-width="2" d="m11.480315 35.994892l0 0c0 -3.8675232 3.1352444 -7.0027657 7.0027647 -7.0027657l63.033844 0c1.8572464 0 3.6384277 0.73778915 4.9516983 2.0510616c1.3132782 1.3132725 2.0510635 3.0944538 2.0510635 4.951704l0 28.01022c0 3.8675156 -3.1352463 7.002762 -7.002762 7.002762l-63.033844 0c-3.8675203 0 -7.0027647 -3.1352463 -7.0027647 -7.002762z" fill="#ffffff" class="color000 svgShape colorStrokefff svgStroke"></path></g><g filter="url(#d)" fill="#ffffff" class="color000 svgShape"><use transform="translate(0 2)" xlink:href="#e"></use></g><defs><filter id="d" filterUnits="userSpaceOnUse"><feGaussianBlur in="SourceAlpha" result="blur" stdDeviation="2"></feGaussianBlur><feComponentTransfer color-interpolation-filters="sRGB" in="blur"><feFuncR slope="0" type="linear"></feFuncR><feFuncG slope="0" type="linear"></feFuncG><feFuncB slope="0" type="linear"></feFuncB><feFuncA slope=".5" type="linear"></feFuncA></feComponentTransfer></filter></defs><g id="e" fill="#ffffff" class="color000 svgShape"><path fill="#ffffff" fill-opacity="0" fill-rule="evenodd" d="m17.889763 28.188976l64.220474 0l0 43.622044l-64.220474 0z" class="color000 svgShape"></path><path fill="#6b6b6b" d="m41.964844 44.654602l-4.546875 0l0 11.734375l-3.75 0l0 -11.734375l-4.53125 0l0 -2.8125l12.828125 0l0 2.8125zm15.4453125 11.734375l-4.34375 0l-3.140625 -4.78125l-3.1875 4.78125l-4.140625 0l5.15625 -7.328125l-5.046875 -7.21875l4.328125 0l3.03125 4.53125l3.109375 -4.53125l4.15625 0l-5.078125 7.078125l5.15625 7.46875zm13.4609375 -11.734375l-4.546875 0l0 11.734375l-3.75 0l0 -11.734375l-4.53125 0l0 -2.8125l12.828125 0l0 2.8125z" class="colorfff svgShape"></path></g></g></svg></g></svg>