<?xml version="1.0" encoding="utf-8"?>
<!-- Generator: Adobe Illustrator 27.0.0, SVG Export Plug-In . SVG Version: 6.00 Build 0)  -->
<svg version="1.1" id="Layer_1" xmlns="http://www.w3.org/2000/svg" xmlns:xlink="http://www.w3.org/1999/xlink" x="0px" y="0px"
	 width="145.4799652px" height="159.4656219px" viewBox="0 0 145.4799652 159.4656219"
	 style="enable-background:new 0 0 145.4799652 159.4656219;" xml:space="preserve">
<style type="text/css">
	.st0{fill:#333333;}
	.st1{fill:#0346DA;}
</style>
<g>
	<g>
		<g>
			<path class="st0" d="M0.8192975,156.4387054c-0.4768761-0.7640686-0.2018725-1.3894958,0.6200913-1.6134644l0.2445322-0.0662689
				c0.6859854-0.1866455,1.1072515,0.0388489,1.5285174,0.4719238c0.5004914,0.5153503,1.1080129,0.7914886,1.8218038,0.7914886
				c0.8364372,0,1.3555923-0.3587952,1.3555923-0.9377594c0-1.66716-5.6528096-0.6863556-5.6528096-4.6994324
				c0-1.9966278,1.7002994-3.2950897,4.1692376-3.2950897c1.839325,0,3.3545113,0.5759125,4.0523043,1.6618347
				c0.5606718,0.8726196,0.3191872,1.5068054-0.603713,1.6938171l-0.2471991,0.0502777
				c-0.9548945,0.1934967-1.2702727-0.2285309-1.746387-0.6212311c-0.3938417-0.3245239-0.8124413-0.4963074-1.3338814-0.4963074
				c-0.7640686,0-1.2519903,0.3466187-1.2519903,0.8890076c0,1.9185486,5.7354627,0.6859741,5.7354627,4.6712494
				c0,2.0488129-1.8656058,3.3693695-4.4514775,3.3693695C3.2505274,158.3081207,1.5502281,157.6095581,0.8192975,156.4387054z"/>
			<path class="st0" d="M10.7281876,152.7093964c0-3.9231873,2.4898882-5.6048279,5.2734432-5.6048279
				c2.7378464,0,5.247921,1.6816406,5.247921,5.6048279c0,3.9993591-2.4948387,5.6032867-5.2783928,5.6032867
				S10.7281876,156.7087555,10.7281876,152.7093964z M18.1711884,152.6991119c0-1.8614197-0.9000473-2.9077301-2.1905079-2.9077301
				c-1.3361664,0-2.2152643,1.0413513-2.2152643,2.9077301c0,1.9429169,0.8650045,2.9439087,2.2057428,2.9439087
				C17.2760925,155.6430206,18.1711884,154.6420288,18.1711884,152.6991119z"/>
			<path class="st0" d="M23.0709743,156.917099v-8.4455109c0-0.830719,0.4509754-1.2816925,1.2817001-1.2816925h4.376442
				c0.8307247,0,1.2817001,0.4509735,1.2817001,1.2816925v0.1336975c0,0.8311005-0.4509754,1.2820892-1.2817001,1.2820892
				h-2.5801582v2.031662h2.2960129c0.8307247,0,1.2817001,0.4407043,1.2817001,1.2203827v0.0152283
				c0,0.7945404-0.4509754,1.2352448-1.2817001,1.2352448h-2.2960129v2.5272064c0,0.830719-0.4509754,1.2817078-1.2817001,1.2817078
				h-0.5145836C23.5219498,158.1988068,23.0709743,157.747818,23.0709743,156.917099z"/>
			<path class="st0" d="M33.158123,156.917099v-7.0042114h-1.0935402c-0.8307247,0-1.2817001-0.4509735-1.2817001-1.2816925
				v-0.1596069c0-0.830719,0.4509754-1.2816925,1.2817001-1.2816925h5.2502098c0.8307228,0,1.2816963,0.4509735,1.2816963,1.2816925
				v0.1596069c0,0.830719-0.4509735,1.2816925-1.2816963,1.2816925h-1.0783043v7.0042114
				c0,0.830719-0.4513588,1.2817078-1.2820816,1.2817078h-0.5145836
				C33.6090965,158.1988068,33.158123,157.747818,33.158123,156.917099z"/>
			<path class="st0" d="M42.0885048,157.1418304l-2.7142334-8.4996033
				c-0.2799568-0.8779449,0.1474037-1.4473877,1.0703049-1.4473877h0.6577988c0.7644501,0,1.2272339,0.366806,1.4241524,1.1007843
				l1.5029984,5.5945282l1.4420547-5.5895844c0.1904449-0.7389221,0.6589432-1.1057281,1.4230118-1.1057281h0.1626396
				c0.7644501,0,1.233326,0.3816528,1.4226303,1.116394l1.4371033,5.5789185l1.5216599-5.5937653
				c0.2003479-0.7355042,0.6562767-1.1015472,1.4203453-1.1015472h0.6684647c0.9228973,0,1.3586388,0.5583954,1.0718269,1.4508209
				l-2.7283249,8.4931183c-0.2300568,0.7149353-0.712265,1.0600281-1.4557686,1.0600281h-0.6002846
				c-0.7640686,0-1.2318001-0.3717499-1.4237709-1.1160126l-1.4203453-5.507309l-1.4150085,5.507309
				c-0.1927338,0.7492065-0.6600876,1.1160126-1.4245338,1.1160126h-0.5896225
				C42.7984848,158.1988068,42.314373,157.8495178,42.0885048,157.1418304z"/>
			<path class="st0" d="M63.9158669,158.1988068h-0.543911c-0.7492142,0-1.2104759-0.3454742-1.4401512-1.0714569
				l-0.1824493-0.5766602h-3.9208946l-0.180542,0.5770416c-0.2266312,0.7256012-0.6917,1.0710754-1.4409142,1.0710754h-0.5446739
				c-0.9381371,0-1.3544502-0.5968628-1.0253601-1.4740601l3.1899681-8.5060577
				c0.2616692-0.6985626,0.7332153-1.0287933,1.4717636-1.0287933h0.96632c0.7389297,0,1.2093315,0.3306122,1.4721451,1.0287933
				l3.2002487,8.5037689C65.2687912,157.6030884,64.8494339,158.1988068,63.9158669,158.1988068z M59.7816734,150.5234528
				l-1.2550392,3.8725281h2.5192146L59.7816734,150.5234528z"/>
			<path class="st0" d="M74.0414886,158.1988068h-0.5743866c-0.7339783,0-1.1636276-0.3191986-1.4755783-0.9922333
				l-1.1125793-2.3504791c-0.1234131,0.0045776-0.2494812,0.0072327-0.3786087,0.0072327h-0.9187088v2.053772
				c0,0.830719-0.4509735,1.2817078-1.2817001,1.2817078h-0.5401001c-0.8307266,0-1.2817001-0.4509888-1.2817001-1.2817078
				v-8.4455109c0-0.830719,0.4509735-1.2816925,1.2817001-1.2816925h2.8022156c3.7239761,0,4.7615204,1.4054871,4.7615204,3.7696838
				c0,1.3418732-0.5069656,2.5146484-1.7170563,3.2158661l1.359024,2.507019
				C75.4968719,157.6625061,75.2192001,158.1988068,74.0414886,158.1988068z M72.2196808,151.2128754
				c0-0.9396667-0.4543991-1.4595795-1.734581-1.4595795h-0.9183273v2.9359131h0.9183273
				C71.7652817,152.689209,72.2196808,152.1734772,72.2196808,151.2128754z"/>
			<path class="st0" d="M77.1819382,156.917099v-8.4455109c0-0.830719,0.4509735-1.2816925,1.2817001-1.2816925h4.8327484
				c0.830719,0,1.2817001,0.4509735,1.2817001,1.2816925v0.1596069c0,0.830719-0.4509811,1.2816925-1.2817001,1.2816925h-3.0364685
				v1.6321259h2.7626038c0.8307266,0,1.2817001,0.3987885,1.2817001,1.1148682v0.0152283
				c0,0.7263641-0.4509735,1.1205902-1.2817001,1.1205902h-2.7626038v1.6903839h3.0364685
				c0.830719,0,1.2817001,0.4509888,1.2817001,1.2817078v0.1493073c0,0.830719-0.4509811,1.2817078-1.2817001,1.2817078h-4.8327484
				C77.6329117,158.1988068,77.1819382,157.747818,77.1819382,156.917099z"/>
			<path class="st0" d="M90.2754593,152.663681c0-3.3602142,2.1402283-5.5735779,5.2791519-5.5735779
				c1.9455948,0,3.3762207,0.5027771,4.2126617,1.7345734c0.5195389,0.7655945,0.2315826,1.2740936-0.6810303,1.506424
				l-0.4692612,0.1195984c-0.6943665,0.1755981-1.1202011-0.0220795-1.5361328-0.3641205
				c-0.3443298-0.2814789-0.788826-0.48526-1.4127274-0.48526c-1.3898773,0-2.2834473,1.2203827-2.2834473,3.0985565
				c0,1.8926392,0.8688126,3.0570374,2.2628784,3.0570374c1.0653534,0,1.7905731-0.6311493,1.9025497-1.7898102h-1.1110611
				c-0.7473068,0-1.1670456-0.3988037-1.1670456-1.1152496v-0.0152435c0-0.7008362,0.455925-1.0946808,1.2817001-1.0946808
				h2.9058151c0.8101578,0,1.3026505,0.1927338,1.3026505,0.8535767v0.2338715c0,3.4337311-1.9813995,5.469223-5.2532578,5.469223
				C92.3242722,158.2985992,90.2754593,156.1004639,90.2754593,152.663681z"/>
			<path class="st0" d="M110.1511383,158.1988068h-0.5743866c-0.7339783,0-1.1636276-0.3191986-1.4755707-0.9922333
				l-1.112587-2.3504791c-0.1234055,0.0045776-0.2494812,0.0072327-0.3786087,0.0072327h-0.9187088v2.053772
				c0,0.830719-0.4509735,1.2817078-1.2817001,1.2817078h-0.5401001c-0.8307266,0-1.2817001-0.4509888-1.2817001-1.2817078
				v-8.4455109c0-0.830719,0.4509735-1.2816925,1.2817001-1.2816925h2.8022156c3.7239761,0,4.7615204,1.4054871,4.7615204,3.7696838
				c0,1.3418732-0.5069656,2.5146484-1.7170563,3.2158661l1.359024,2.507019
				C111.6065216,157.6625061,111.3288498,158.1988068,110.1511383,158.1988068z M108.3293304,151.2128754
				c0-0.9396667-0.4543991-1.4595795-1.734581-1.4595795h-0.9183273v2.9359131h0.9183273
				C107.8749313,152.689209,108.3293304,152.1734772,108.3293304,151.2128754z"/>
			<path class="st0" d="M112.7625275,152.7093964c0-3.9231873,2.4898834-5.6048279,5.2734451-5.6048279
				c2.7378464,0,5.2475357,1.6816406,5.2475357,5.6048279c0,3.9993591-2.4944534,5.6032867-5.2780075,5.6032867
				S112.7625275,156.7087555,112.7625275,152.7093964z M120.2055283,152.6991119
				c0-1.8614197-0.9000473-2.9077301-2.190506-2.9077301c-1.3361664,0-2.2152634,1.0413513-2.2152634,2.9077301
				c0,1.9429169,0.8649979,2.9439087,2.2057419,2.9439087C119.3104324,155.6430206,120.2055283,154.6420288,120.2055283,152.6991119
				z"/>
			<path class="st0" d="M124.9678116,153.1219025v-4.6503143c0-0.830719,0.4509735-1.2816925,1.2820816-1.2816925h0.5248642
				c0.8307266,0,1.2817001,0.4509735,1.2817001,1.2816925v4.6350708c0,1.764679,0.4753571,2.4956055,1.6656342,2.4956055
				c1.2009583,0,1.6763153-0.7309265,1.6763153-2.4803619v-4.6503143c0-0.830719,0.4509735-1.2816925,1.2816925-1.2816925h0.5458221
				c0.830719,0,1.282074,0.4509735,1.282074,1.2816925v4.6712646c0,3.5201874-1.5822144,5.1652679-4.7859039,5.1652679
				C126.5187988,158.3081207,124.9678116,156.6885681,124.9678116,153.1219025z"/>
			<path class="st0" d="M136.599472,156.917099v-8.4455109c0-0.830719,0.4509735-1.2816925,1.2817078-1.2816925h2.1783142
				c4.0942078,0,5.4204712,1.4054871,5.4204712,4.2736053c0,2.8684845-1.3262634,4.2012329-5.3842926,4.2012329h-0.407547v1.2523651
				c0,0.830719-0.451355,1.2817078-1.2820892,1.2817078h-0.5248566
				C137.0504456,158.1988068,136.599472,157.747818,136.599472,156.917099z M142.3296051,151.4124603
				c0-0.9910889-0.4498291-1.5822296-1.730011-1.5822296h-0.9114685v3.2002563h0.9114685
				C141.879776,153.0304871,142.3296051,152.4187775,142.3296051,151.4124603z"/>
		</g>
	</g>
	<g>
		<g>
			<path class="st0" d="M0,123.3841782c0-8.9669418,6.1159735-15.394104,14.668129-15.394104
				c6.2195759,0,10.4177608,2.280777,12.7503414,6.6865463c0.8810005,1.6584015,0.1554031,2.8505936-1.4511967,3.1613998
				l-0.4147911,0.1035995c-1.4511967,0.3111877-2.436182-0.2590027-3.3171844-1.5547943
				c-1.6583996-2.3321991-4.0945816-3.4725876-7.3081627-3.4725876c-5.3903761,0-9.1223507,4.2499847-9.1223507,10.4699402
				c0,6.167778,3.7319741,10.4177628,9.1223507,10.4177628c3.1099777,0,5.5457783-1.191803,7.2045612-3.4207916
				c0.8810024-1.2957916,1.8141861-1.8141785,3.2653828-1.5547943l0.2072048,0.0518036
				c1.8141861,0.3626099,2.5915852,1.4512024,1.8659859,2.9541931c-2.2803955,4.4575806-6.6861668,6.9455566-12.8021412,6.9455566
				C6.2713776,138.7779083,0,132.5061493,0,123.3841782z"/>
			<path class="st0" d="M34.4657211,135.6161346v-34.1046448c0-1.658783,0.9331856-2.5915833,2.5915871-2.5915833h0.6737976
				c1.658783,0,2.5915833,0.9328003,2.5915833,2.5915833v34.1046448c0,1.658783-0.9328003,2.5915833-2.5915833,2.5915833h-0.6737976
				C35.3989067,138.2077179,34.4657211,137.2749176,34.4657211,135.6161346z"/>
			<path class="st0" d="M46.1274757,123.3841782c0-10.6771469,7.4117661-15.394104,14.9789352-15.394104
				c7.5675545,0,15.0311165,4.7169571,15.0311165,15.394104c0,10.7807541-7.4117661,15.4973373-14.9793129,15.4973373
				C53.5392418,138.8815155,46.1274757,134.1649323,46.1274757,123.3841782z M70.3323669,123.3841782
				c0-6.4789581-3.7319794-10.4699402-9.225956-10.4699402s-9.1741486,3.9391785-9.1741486,10.4699402
				c0,6.5825729,3.680172,10.5217514,9.2259521,10.5217514C66.6525726,133.9059296,70.3323669,129.914566,70.3323669,123.3841782z"
				/>
			<path class="st0" d="M106.1967239,108.5610275c1.6587753,0,2.5915833,0.9328079,2.5915833,2.5915833v24.4639053
				c0,1.6587677-0.9328079,2.5915833-2.5915833,2.5915833h-0.6220016c-1.6584015,0-2.5915833-0.9328156-2.5915833-2.5915833
				v-2.9481049c-1.3487396,3.4379272-4.7146759,6.0576935-9.6913986,6.0576935
				c-8.1891708,0-11.9729462-4.7165833-11.9729462-14.0979309v-13.4763184c0-1.6584015,0.9331894-2.5915909,2.5915909-2.5915909
				h0.621994c1.658783,0,2.5915833,0.9331894,2.5915833,2.5915909v13.0097275c0,6.4789658,2.4879837,9.5367508,7.9819641,9.5367508
				c5.59758,0,7.8783569-3.6797791,7.8783569-10.2105484v-12.3359299c0-1.6584015,0.9328003-2.5915909,2.5915833-2.5915909h0.621994
				L106.1967239,108.5610275z"/>
			<path class="st0" d="M114.8528595,123.3841782c0-10.2109375,6.219574-15.394104,13.5795441-15.394104
				c4.6647797,0,8.8629608,2.280777,10.5217438,6.3753586v-12.8539429c0-1.658783,0.9328003-2.5915833,2.5915833-2.5915833h0.621994
				c1.6584015,0,2.5915833,0.9328003,2.5915833,2.5915833v34.0528412c0,1.658783-0.9331818,2.5915833-2.5915833,2.5915833h-0.621994
				c-1.658783,0-2.5915833-0.9328003-2.5915833-2.5915833v-3.0063782c-1.658783,3.9909821-5.8569641,6.3235626-10.4699402,6.3235626
				C121.1242371,138.8815155,114.8528595,133.6465454,114.8528595,123.3841782z M139.1095428,123.3841782
				c0-6.4789581-3.7315826-10.4699402-9.2777405-10.4699402c-5.4421844,0-9.1741562,3.9391785-9.1741562,10.4699402
				c0,6.5825729,3.7319717,10.5217514,9.2777481,10.5217514
				C135.4297638,133.9059296,139.1095428,129.914566,139.1095428,123.3841782z"/>
		</g>
	</g>
	<g>
		<g>
			<path class="st1" d="M107.3510132,21.7526169v-4.355114h-1.2828445c-0.5065842,0-0.7918777-0.2216778-0.7918777-0.6334229
				c0-0.4117432,0.2852936-0.6338024,0.7918777-0.6338024h3.9117508c0.5069656,0,0.7918777,0.2220592,0.7918777,0.6338024
				c0,0.4117451-0.2849121,0.6334229-0.7918777,0.6334229h-1.2512283v4.355114c0,0.5065842-0.2372894,0.791872-0.6806488,0.791872
				C107.6043015,22.5444889,107.3510132,22.259201,107.3510132,21.7526169z M111.5164413,22.5601063
				c-0.427742,0-0.6543732-0.3184261-0.5385818-0.8710995l1.0135498-4.8616982
				c0.094841-0.4593544,0.380127-0.697031,0.8551025-0.697031h0.2376785c0.4433517,0,0.7408295,0.2075863,0.9023285,0.6178055
				l1.6469727,4.1806641l1.6629715-4.1806641c0.1645508-0.4147911,0.4749756-0.6178055,0.918335-0.6178055h0.2216721
				c0.4753571,0,0.7602615,0.2376766,0.855484,0.697031l0.9975586,4.8616982
				c0.113884,0.5545788-0.0792313,0.8710995-0.5069656,0.8710995c-0.4589767,0-0.7427444-0.2376766-0.8391037-0.6966515
				l-0.8391037-3.9749832l-1.5837479,4.0542088c-0.1664505,0.4243145-0.4433594,0.6174259-0.8711014,0.6174259
				c-0.4433594,0-0.7206421-0.1931114-0.8867111-0.6174259l-1.5837479-4.0542088l-0.8234863,3.9749832
				c-0.0952225,0.4589748-0.3801346,0.6966515-0.8394852,0.6966515H111.5164413z"/>
		</g>
	</g>
	<path class="st1" d="M104.1845474,27.732523C100.4977112,13.7969913,87.7097549,3.8501546,73.1400833,3.8501546
		c-14.5714264,0-27.3614044,9.9497404-31.0451241,23.8861065c-16.3238888,1.6277161-28.875927,15.3495922-28.875927,31.9554348
		c0,17.7106857,14.4091234,32.1196213,32.119812,32.1196213h55.6535492c17.7106857,0,32.1198044-14.4089355,32.1198044-32.1196213
		C133.1121979,43.0538559,120.5323105,29.3284588,104.1845474,27.732523z M100.496994,32.0525475
		c0.1490707,1.0462112,0.2361069,2.1024971,0.2649612,3.1615639c-1.0583572,0.009285-2.1063309,0.0789871-3.140831,0.2220383
		c-0.0228119-1.056736-0.1207962-2.1064034-0.2778625-3.1438789C98.3852844,32.1529808,99.4376373,32.0697594,100.496994,32.0525475
		z M44.859684,47.6111526l2.9797134-0.1154099L46.897831,44.666481c-0.5352211-1.607933-0.9159698-3.2725716-1.1454582-4.969799
		c1.5852699,0.0324707,3.15802,0.2421722,4.6801338,0.6424904l3.1244278,0.8217735l-0.3271866-3.2141533
		c-0.0651321-0.6372299-0.0978889-1.3024559-0.0978889-1.9770164c0-0.9211617,0.0685616-1.8371582,0.1927299-2.7429428
		c1.6317406,0.4911842,3.2162971,1.1304398,4.7299118,1.9175529l2.6487198,1.3771133l0.5804787-2.9282951
		c1.1163902-5.628624,6.1026382-9.7138748,11.8563843-9.7138748c5.7621307,0,10.7499008,4.0936317,11.8598175,9.7340622
		l0.5781937,2.9399109l2.6555786-1.3875885c1.5095215-0.7887077,3.0915985-1.429985,4.7236252-1.9238586
		c0.1232147,0.9003792,0.1910172,1.8114243,0.1910172,2.7279205c0,0.649231-0.0331421,1.3237877-0.0986557,2.0050125
		l-0.3085175,3.2114868l3.1164474-0.8341522c1.5119553-0.4047203,3.071701-0.6261139,4.6726837-0.6604195
		c-0.2285309,1.6933746-0.6099014,3.3595581-1.1475296,4.9747772l-0.9453735,2.8401146l2.9915237,0.1047478
		c6.5349503,0.2291069,11.6541367,5.5354958,11.6541367,12.0803528c0,6.6667404-5.4238968,12.0904465-12.0906372,12.0904465
		H45.3388443c-6.6667442,0-12.0906372-5.4237061-12.0906372-12.0904465
		C33.2482071,53.1696892,38.3487244,47.8633003,44.859684,47.6111526z M88.6168442,30.0440578
		c-2.4121857-6.3041344-8.5346298-10.6432495-15.4767609-10.6432495c-6.9329834,0-13.0535278,4.3318787-15.470665,10.6255379
		c-1.0593071-0.440834-2.1440392-0.8168678-3.244812-1.1408176c2.906105-7.7062416,10.3086853-12.9199791,18.715477-12.9199791
		c8.4137039,0,15.8174744,5.2182369,18.7185287,12.9343338C90.7581253,29.2251415,89.6744385,29.602272,88.6168442,30.0440578z
		 M48.6594543,35.4296722c-1.0357132-0.140976-2.0914497-0.2077293-3.1407814-0.2156792
		c0.0287552-1.0555458,0.1154556-2.1084709,0.2638626-3.1519737c1.0560913,0.0168304,2.1091843,0.0950356,3.1535416,0.2312012
		C48.7798882,33.3291054,48.6824265,34.3761749,48.6594543,35.4296722z M41.2920647,40.0993309
		c0.1469765,1.1389122,0.3465843,2.267231,0.6126633,3.3770523c-7.5545998,1.5742264-13.1350422,8.2299232-13.1350422,16.215313
		c0,9.1360626,7.4330959,16.5689697,16.5691586,16.5689697h55.6535492c9.1360626,0,16.5691528-7.4329071,16.5691528-16.5689697
		c0-8.013195-5.6010056-14.6717491-13.1826477-16.224453c0.2666245-1.1118927,0.4661102-2.2400703,0.6122818-3.3771248
		c4.1029587,0.8324623,7.853508,2.9347687,10.7295227,6.0605049c3.4047852,3.7003593,5.2799149,8.509304,5.2799149,13.5410728
		c0,11.0327072-8.975708,20.0082245-20.0082245,20.0082245H45.3388443c-11.0325203,0-20.0082264-8.9755173-20.0082264-20.0082245
		c0-5.0245323,1.8697948-9.8283348,5.2650623-13.5264091C33.4608154,43.0445251,37.1987419,40.940506,41.2920647,40.0993309z
		 M73.1400833,8.3286762c12.0914993,0,22.7552185,7.9589882,26.3457413,19.2804146
		c-1.0780182,0.0503483-2.1517029,0.1553326-3.2147751,0.3126888c-3.3842163-9.7742939-12.6158371-16.4347515-23.1309662-16.4347515
		c-10.5087929,0-19.740551,6.6571255-23.1297264,16.4248238c-1.0643768-0.1552372-2.1399193-0.2563171-3.2148895-0.3051414
		C50.3855133,16.2875462,61.0491142,8.3286762,73.1400833,8.3286762z M100.9923935,87.3327942H45.3388443
		c-15.2413712,0-27.6412907-12.3997269-27.6412907-27.641098c0-13.8411674,10.1313782-25.3546829,23.5329952-27.3378868
		c-0.1210976,1.0732079-0.1872063,2.1531067-0.2000389,3.234314c-5.2605171,0.9344444-10.0779819,3.5667152-13.7337303,7.5485077
		c-4.1559067,4.5265121-6.4446831,10.4059525-6.4446831,16.5550652c0,13.5020294,10.9849091,24.4867477,24.4867477,24.4867477
		h55.6535492c13.5018387,0,24.4867477-10.9847183,24.4867477-24.4867477c0-6.158062-2.2952576-12.0439796-6.4629669-16.573349
		c-3.6665573-3.9848862-8.4957352-6.6135864-13.7662735-7.5384369c-0.0131378-1.0807304-0.0794144-2.1601295-0.2005844-3.23246
		c13.4289932,1.9575195,23.5843658,13.4753685,23.5843658,27.3442459
		C128.6336823,74.9330673,116.2337646,87.3327942,100.9923935,87.3327942z"/>
</g>
</svg>
